<svg width="30" height="31" viewBox="0 0 30 31" fill="none" xmlns="http://www.w3.org/2000/svg">
<rect x="0.5" y="1" width="29" height="29" rx="14.5" stroke="white"/>
<mask id="path-2-inside-1_3_9" fill="white">
<path d="M15 13C14.5129 13 14.0367 13.1466 13.6317 13.4213C13.2266 13.696 12.9109 14.0865 12.7245 14.5433C12.5381 15.0001 12.4893 15.5028 12.5844 15.9877C12.6794 16.4727 12.914 16.9181 13.2584 17.2678C13.6029 17.6174 14.0417 17.8555 14.5195 17.952C14.9973 18.0484 15.4925 17.9989 15.9425 17.8097C16.3926 17.6205 16.7772 17.3 17.0479 16.8889C17.3185 16.4778 17.463 15.9945 17.463 15.5C17.463 14.837 17.2035 14.2011 16.7416 13.7322C16.2797 13.2634 15.6532 13 15 13ZM15 17.2857C14.6521 17.2857 14.3119 17.181 14.0226 16.9848C13.7333 16.7885 13.5078 16.5097 13.3747 16.1834C13.2415 15.8571 13.2067 15.498 13.2745 15.1516C13.3424 14.8052 13.51 14.487 13.756 14.2373C14.0021 13.9876 14.3155 13.8175 14.6568 13.7486C14.998 13.6797 15.3518 13.7151 15.6732 13.8502C15.9947 13.9854 16.2695 14.2143 16.4628 14.5079C16.6561 14.8016 16.7593 15.1468 16.7593 15.5C16.7593 15.9736 16.5739 16.4278 16.244 16.7627C15.9141 17.0976 15.4666 17.2857 15 17.2857ZM7.96296 13C7.47584 13 6.99965 13.1466 6.59462 13.4213C6.18958 13.696 5.8739 14.0865 5.68748 14.5433C5.50107 15.0001 5.45229 15.5028 5.54733 15.9877C5.64236 16.4727 5.87693 16.9181 6.22139 17.2678C6.56584 17.6174 7.0047 17.8555 7.48246 17.952C7.96023 18.0484 8.45545 17.9989 8.9055 17.8097C9.35555 17.6205 9.74021 17.3 10.0108 16.8889C10.2815 16.4778 10.4259 15.9945 10.4259 15.5C10.4259 14.837 10.1664 14.2011 9.70454 13.7322C9.24265 13.2634 8.61618 13 7.96296 13ZM7.96296 17.2857C7.61502 17.2857 7.27488 17.181 6.98557 16.9848C6.69626 16.7885 6.47077 16.5097 6.33762 16.1834C6.20447 15.8571 6.16963 15.498 6.23751 15.1516C6.30539 14.8052 6.47294 14.487 6.71898 14.2373C6.96502 13.9876 7.27849 13.8175 7.61975 13.7486C7.96101 13.6797 8.31474 13.7151 8.6362 13.8502C8.95767 13.9854 9.23242 14.2143 9.42573 14.5079C9.61904 14.8016 9.72222 15.1468 9.72222 15.5C9.72222 15.9736 9.53687 16.4278 9.20695 16.7627C8.87702 17.0976 8.42955 17.2857 7.96296 17.2857ZM22.037 13C21.5499 13 21.0737 13.1466 20.6687 13.4213C20.2637 13.696 19.948 14.0865 19.7616 14.5433C19.5751 15.0001 19.5264 15.5028 19.6214 15.9877C19.7164 16.4727 19.951 16.9181 20.2955 17.2678C20.6399 17.6174 21.0788 17.8555 21.5565 17.952C22.0343 18.0484 22.5295 17.9989 22.9796 17.8097C23.4296 17.6205 23.8143 17.3 24.0849 16.8889C24.3555 16.4778 24.5 15.9945 24.5 15.5C24.5 15.1717 24.4363 14.8466 24.3125 14.5433C24.1887 14.24 24.0073 13.9644 23.7786 13.7322C23.5499 13.5001 23.2784 13.3159 22.9796 13.1903C22.6807 13.0647 22.3605 13 22.037 13ZM22.037 17.2857C21.6891 17.2857 21.349 17.181 21.0596 16.9848C20.7703 16.7885 20.5448 16.5097 20.4117 16.1834C20.2785 15.8571 20.2437 15.498 20.3116 15.1516C20.3795 14.8052 20.547 14.487 20.7931 14.2373C21.0391 13.9876 21.3526 13.8175 21.6938 13.7486C22.0351 13.6797 22.3888 13.7151 22.7103 13.8502C23.0317 13.9854 23.3065 14.2143 23.4998 14.5079C23.6931 14.8016 23.7963 15.1468 23.7963 15.5C23.7963 15.9736 23.6109 16.4278 23.281 16.7627C22.9511 17.0976 22.5036 17.2857 22.037 17.2857Z"/>
</mask>
<path d="M7.96296 13V14V13ZM9.72222 15.5H8.72222H9.72222ZM22.037 13V14V13ZM24.5 15.5H23.5H24.5ZM15 12C14.3117 12 13.6402 12.2072 13.0703 12.5937L14.193 14.2489C14.4332 14.086 14.714 14 15 14V12ZM13.0703 12.5937C12.5007 12.9801 12.0589 13.5276 11.7986 14.1655L13.6504 14.9211C13.7629 14.6453 13.9526 14.412 14.193 14.2489L13.0703 12.5937ZM11.7986 14.1655C11.5384 14.8032 11.4706 15.504 11.603 16.18L13.5657 15.7954C13.5081 15.5015 13.5378 15.1971 13.6504 14.9211L11.7986 14.1655ZM11.603 16.18C11.7355 16.8561 12.0629 17.4792 12.5461 17.9696L13.9708 16.566C13.765 16.3571 13.6233 16.0892 13.5657 15.7954L11.603 16.18ZM12.5461 17.9696C13.0294 18.4602 13.647 18.796 14.3216 18.9322L14.7174 16.9717C14.4365 16.915 14.1764 16.7746 13.9708 16.566L12.5461 17.9696ZM14.3216 18.9322C14.9963 19.0684 15.6955 18.9984 16.3301 18.7315L15.555 16.8879C15.2895 16.9995 14.9982 17.0284 14.7174 16.9717L14.3216 18.9322ZM16.3301 18.7315C16.9646 18.4648 17.5044 18.0141 17.8831 17.4388L16.2126 16.3391C16.0501 16.586 15.8206 16.7762 15.555 16.8879L16.3301 18.7315ZM17.8831 17.4388C18.2618 16.8636 18.463 16.1889 18.463 15.5H16.463C16.463 15.8 16.3753 16.092 16.2126 16.3391L17.8831 17.4388ZM18.463 15.5C18.463 14.5765 18.1017 13.6879 17.4539 13.0304L16.0292 14.434C16.3053 14.7142 16.463 15.0974 16.463 15.5H18.463ZM17.4539 13.0304C16.8057 12.3724 15.9233 12 15 12V14C15.3831 14 15.7537 14.1544 16.0292 14.434L17.4539 13.0304ZM15 16.2857C14.8532 16.2857 14.7084 16.2416 14.5839 16.1572L13.4613 17.8124C13.9154 18.1204 14.4509 18.2857 15 18.2857V16.2857ZM14.5839 16.1572C14.4592 16.0726 14.3598 15.9508 14.3005 15.8055L12.4488 16.5612C12.6558 17.0685 13.0074 17.5045 13.4613 17.8124L14.5839 16.1572ZM14.3005 15.8055C14.2412 15.6601 14.2254 15.4993 14.2559 15.3439L12.2932 14.9593C12.1879 15.4968 12.2418 16.054 12.4488 16.5612L14.3005 15.8055ZM14.2559 15.3439C14.2863 15.1887 14.361 15.0481 14.4684 14.9391L13.0437 13.5355C12.6589 13.926 12.3985 14.4218 12.2932 14.9593L14.2559 15.3439ZM14.4684 14.9391C14.5756 14.8303 14.7103 14.758 14.8547 14.7288L14.4589 12.7684C13.9208 12.877 13.4285 13.1448 13.0437 13.5355L14.4684 14.9391ZM14.8547 14.7288C14.999 14.6997 15.1488 14.7145 15.2857 14.7721L16.0608 12.9284C15.5548 12.7156 14.9971 12.6597 14.4589 12.7684L14.8547 14.7288ZM15.2857 14.7721C15.4227 14.8297 15.5423 14.9283 15.6275 15.0578L17.298 13.9581C16.9966 13.5002 16.5667 13.1411 16.0608 12.9284L15.2857 14.7721ZM15.6275 15.0578C15.7128 15.1874 15.7593 15.3413 15.7593 15.5H17.7593C17.7593 14.9523 17.5993 14.4158 17.298 13.9581L15.6275 15.0578ZM15.7593 15.5C15.7593 15.7132 15.6757 15.9146 15.5316 16.0609L16.9563 17.4645C17.4721 16.941 17.7593 16.234 17.7593 15.5H15.7593ZM15.5316 16.0609C15.388 16.2066 15.1965 16.2857 15 16.2857V18.2857C15.7367 18.2857 16.4401 17.9885 16.9563 17.4645L15.5316 16.0609ZM7.96296 12C7.2747 12 6.60315 12.2072 6.03331 12.5937L7.15592 14.2489C7.39614 14.086 7.67697 14 7.96296 14V12ZM6.03331 12.5937C5.46365 12.9801 5.02189 13.5276 4.76161 14.1655L6.61336 14.9211C6.72591 14.6453 6.91552 14.412 7.15592 14.2489L6.03331 12.5937ZM4.76161 14.1655C4.50138 14.8032 4.43352 15.504 4.56599 16.18L6.52866 15.7954C6.47107 15.5015 6.50076 15.1971 6.61336 14.9211L4.76161 14.1655ZM4.56599 16.18C4.69848 16.8561 5.02587 17.4792 5.50902 17.9696L6.93375 16.566C6.728 16.3571 6.58624 16.0892 6.52866 15.7954L4.56599 16.18ZM5.50902 17.9696C5.99234 18.4602 6.60994 18.796 7.28455 18.9322L7.68037 16.9717C7.39946 16.915 7.13934 16.7746 6.93375 16.566L5.50902 17.9696ZM7.28455 18.9322C7.95927 19.0684 8.65846 18.9984 9.29308 18.7315L8.51792 16.8879C8.25244 16.9995 7.96119 17.0284 7.68037 16.9717L7.28455 18.9322ZM9.29308 18.7315C9.92753 18.4648 10.4674 18.0141 10.8461 17.4388L9.17557 16.3391C9.01303 16.586 8.78356 16.7762 8.51792 16.8879L9.29308 18.7315ZM10.8461 17.4388C11.2247 16.8636 11.4259 16.1889 11.4259 15.5H9.42593C9.42593 15.8 9.33822 16.092 9.17557 16.3391L10.8461 17.4388ZM11.4259 15.5C11.4259 14.5765 11.0646 13.6879 10.4169 13.0304L8.99218 14.434C9.26822 14.7142 9.42593 15.0974 9.42593 15.5H11.4259ZM10.4169 13.0304C9.76866 12.3724 8.88626 12 7.96296 12V14C8.34611 14 8.71663 14.1544 8.99218 14.434L10.4169 13.0304ZM7.96296 16.2857C7.81615 16.2857 7.67138 16.2416 7.54688 16.1572L6.42427 17.8124C6.87838 18.1204 7.41388 18.2857 7.96296 18.2857V16.2857ZM7.54688 16.1572C7.4222 16.0726 7.32278 15.9508 7.2635 15.8055L5.41174 16.5612C5.61877 17.0685 5.97033 17.5045 6.42427 17.8124L7.54688 16.1572ZM7.2635 15.8055C7.20415 15.6601 7.1884 15.4993 7.21884 15.3439L5.25617 14.9593C5.15085 15.4968 5.20478 16.054 5.41174 16.5612L7.2635 15.8055ZM7.21884 15.3439C7.24927 15.1887 7.32401 15.0481 7.43134 14.9391L6.00662 13.5355C5.62188 13.926 5.36151 14.4218 5.25617 14.9593L7.21884 15.3439ZM7.43134 14.9391C7.53852 14.8303 7.67325 14.758 7.81766 14.7288L7.42184 12.7684C6.88373 12.877 6.39151 13.1448 6.00662 13.5355L7.43134 14.9391ZM7.81766 14.7288C7.96198 14.6997 8.11173 14.7145 8.24862 14.7721L9.02378 12.9284C8.51775 12.7156 7.96005 12.6597 7.42184 12.7684L7.81766 14.7288ZM8.24862 14.7721C8.38568 14.8297 8.50525 14.9283 8.59046 15.0578L10.261 13.9581C9.9596 13.5002 9.52965 13.1411 9.02378 12.9284L8.24862 14.7721ZM8.59046 15.0578C8.67579 15.1874 8.72222 15.3413 8.72222 15.5H10.7222C10.7222 14.9523 10.5623 14.4158 10.261 13.9581L8.59046 15.0578ZM8.72222 15.5C8.72222 15.7132 8.63866 15.9146 8.49458 16.0609L9.91931 17.4645C10.4351 16.941 10.7222 16.234 10.7222 15.5H8.72222ZM8.49458 16.0609C8.35101 16.2066 8.15947 16.2857 7.96296 16.2857V18.2857C8.69962 18.2857 9.40304 17.9885 9.91931 17.4645L8.49458 16.0609ZM22.037 12C21.3488 12 20.6772 12.2072 20.1074 12.5937L21.23 14.2489C21.4702 14.086 21.751 14 22.037 14V12ZM20.1074 12.5937C19.5377 12.9801 19.096 13.5276 18.8357 14.1655L20.6874 14.9211C20.8 14.6453 20.9896 14.412 21.23 14.2489L20.1074 12.5937ZM18.8357 14.1655C18.5755 14.8032 18.5076 15.504 18.6401 16.18L20.6027 15.7954C20.5451 15.5015 20.5748 15.1971 20.6874 14.9211L18.8357 14.1655ZM18.6401 16.18C18.7726 16.8561 19.0999 17.4792 19.5831 17.9696L21.0078 16.566C20.8021 16.3571 20.6603 16.0892 20.6027 15.7954L18.6401 16.18ZM19.5831 17.9696C20.0664 18.4602 20.684 18.796 21.3586 18.9322L21.7544 16.9717C21.4735 16.915 21.2134 16.7746 21.0078 16.566L19.5831 17.9696ZM21.3586 18.9322C22.0333 19.0684 22.7325 18.9984 23.3671 18.7315L22.592 16.8879C22.3265 16.9995 22.0353 17.0284 21.7544 16.9717L21.3586 18.9322ZM23.3671 18.7315C24.0016 18.4648 24.5415 18.0141 24.9202 17.4388L23.2496 16.3391C23.0871 16.586 22.8576 16.7762 22.592 16.8879L23.3671 18.7315ZM24.9202 17.4388C25.2988 16.8636 25.5 16.1889 25.5 15.5H23.5C23.5 15.8 23.4123 16.092 23.2496 16.3391L24.9202 17.4388ZM25.5 15.5C25.5 15.0424 25.4112 14.589 25.2384 14.1655L23.3866 14.9211C23.4614 15.1042 23.5 15.301 23.5 15.5H25.5ZM25.2384 14.1655C25.0655 13.7419 24.8118 13.3561 24.491 13.0304L23.0662 14.434C23.2028 14.5727 23.3119 14.738 23.3866 14.9211L25.2384 14.1655ZM24.491 13.0304C24.1701 12.7047 23.7884 12.4456 23.3671 12.2685L22.592 14.1121C22.7684 14.1863 22.9297 14.2954 23.0662 14.434L24.491 13.0304ZM23.3671 12.2685C22.9459 12.0914 22.4939 12 22.037 12V14C22.2271 14 22.4156 14.038 22.592 14.1121L23.3671 12.2685ZM22.037 16.2857C21.8902 16.2857 21.7454 16.2416 21.621 16.1572L20.4983 17.8124C20.9525 18.1204 21.488 18.2857 22.037 18.2857V16.2857ZM21.621 16.1572C21.4963 16.0726 21.3969 15.9508 21.3376 15.8055L19.4858 16.5612C19.6928 17.0685 20.0444 17.5045 20.4983 17.8124L21.621 16.1572ZM21.3376 15.8055C21.2782 15.6601 21.2625 15.4993 21.2929 15.3439L19.3302 14.9593C19.2249 15.4968 19.2789 16.054 19.4858 16.5612L21.3376 15.8055ZM21.2929 15.3439C21.3233 15.1887 21.3981 15.0481 21.5054 14.9391L20.0807 13.5355C19.6959 13.926 19.4356 14.4218 19.3302 14.9593L21.2929 15.3439ZM21.5054 14.9391C21.6126 14.8303 21.7473 14.758 21.8917 14.7288L21.4959 12.7684C20.9578 12.877 20.4656 13.1448 20.0807 13.5355L21.5054 14.9391ZM21.8917 14.7288C22.036 14.6997 22.1858 14.7145 22.3227 14.7721L23.0979 12.9284C22.5918 12.7156 22.0341 12.6597 21.4959 12.7684L21.8917 14.7288ZM22.3227 14.7721C22.4598 14.8297 22.5793 14.9283 22.6645 15.0578L24.3351 13.9581C24.0337 13.5002 23.6037 13.1411 23.0979 12.9284L22.3227 14.7721ZM22.6645 15.0578C22.7499 15.1874 22.7963 15.3413 22.7963 15.5H24.7963C24.7963 14.9523 24.6364 14.4158 24.3351 13.9581L22.6645 15.0578ZM22.7963 15.5C22.7963 15.7132 22.7127 15.9146 22.5687 16.0609L23.9934 17.4645C24.5092 16.941 24.7963 16.234 24.7963 15.5H22.7963ZM22.5687 16.0609C22.4251 16.2066 22.2335 16.2857 22.037 16.2857V18.2857C22.7737 18.2857 23.4771 17.9885 23.9934 17.4645L22.5687 16.0609Z" fill="white" mask="url(#path-2-inside-1_3_9)"/>
</svg>
