<svg width="24" height="24" viewBox="0 0 24 24" fill="none" xmlns="http://www.w3.org/2000/svg">
<g clip-path="url(#clip0_1_1087)">
<g clip-path="url(#clip1_1_1087)">
<path d="M3.36002 2.4C2.82984 2.4 2.40002 2.82981 2.40002 3.36C2.40002 3.89019 2.82984 4.32 3.36002 4.32V2.4ZM7.20006 15.84L6.25602 16.0143C6.34007 16.4696 6.73709 16.8 7.20006 16.8V15.84ZM5.76002 5.28C5.22984 5.28 4.80002 5.70981 4.80002 6.24C4.80002 6.77019 5.22984 7.2 5.76002 7.2V5.28ZM17.76 19.68H15.84C15.84 20.7404 16.6996 21.6 17.76 21.6V19.68ZM17.76 19.68V21.6C18.8204 21.6 19.68 20.7404 19.68 19.68H17.76ZM17.76 19.68H19.68C19.68 18.6196 18.8204 17.76 17.76 17.76V19.68ZM17.76 17.76C16.6996 17.76 15.84 18.6196 15.84 19.68H17.76V17.76ZM8.16002 19.68H6.24002C6.24002 20.7404 7.09964 21.6 8.16002 21.6V19.68ZM8.16002 19.68V21.6C9.22041 21.6 10.08 20.7404 10.08 19.68H8.16002ZM8.16002 19.68H10.08C10.08 18.6196 9.22041 17.76 8.16002 17.76V19.68ZM8.16002 17.76C7.09964 17.76 6.24002 18.6196 6.24002 19.68H8.16002V17.76ZM3.36002 4.32H3.61764V2.4H3.36002V4.32ZM4.1841 4.79147L6.25602 16.0143L8.14411 15.6658L6.0722 4.4429L4.1841 4.79147ZM3.61764 4.32C3.85932 4.32 3.98808 4.32062 4.08091 4.32757C4.16173 4.33363 4.14403 4.3407 4.09724 4.32L4.87394 2.56412C4.64163 2.46135 4.41738 2.4274 4.22431 2.41294C4.04324 2.39937 3.83078 2.4 3.61764 2.4V4.32ZM6.0722 4.4429C6.03353 4.23343 5.9956 4.0244 5.94945 3.84891C5.90022 3.6617 5.82616 3.44729 5.68287 3.23742L4.09724 4.32C4.06832 4.27765 4.07198 4.25885 4.09257 4.33718C4.11625 4.42723 4.1402 4.55367 4.1841 4.79147L6.0722 4.4429ZM4.09724 4.32L5.68287 3.23742C5.48127 2.94212 5.20118 2.70887 4.87394 2.56412L4.09724 4.32ZM5.76002 7.2H18.7092V5.28H5.76002V7.2ZM19.2705 7.90546L17.764 14.4335L19.6348 14.8652L21.1412 8.33719L19.2705 7.90546ZM17.2027 14.88H7.20005L7.20006 16.8H17.2027V14.88ZM17.764 14.4335C17.7117 14.6598 17.6836 14.7793 17.6574 14.8644C17.6347 14.9378 17.6324 14.9196 17.6613 14.88L19.2126 16.0112C19.3571 15.8129 19.4369 15.6093 19.4921 15.4305C19.5436 15.2633 19.5889 15.0639 19.6348 14.8652L17.764 14.4335ZM17.2027 16.8C17.407 16.8 17.6115 16.8006 17.7862 16.7878C17.973 16.7742 18.1892 16.7422 18.4147 16.646L17.6613 14.88C17.7063 14.8608 17.7231 14.8673 17.6464 14.8729C17.5577 14.8794 17.4347 14.88 17.2027 14.88V16.8ZM17.6613 14.88L18.4147 16.646C18.7335 16.5101 19.0089 16.2905 19.2126 16.0112L17.6613 14.88ZM18.7092 7.2C19.0565 7.2 19.254 7.20087 19.3952 7.21332C19.5287 7.22508 19.5002 7.24032 19.4328 7.2L20.4187 5.55248C20.1237 5.37592 19.8167 5.32303 19.5638 5.30073C19.3185 5.27912 19.0215 5.28 18.7092 5.28V7.2ZM21.1412 8.33719C21.2115 8.03299 21.2792 7.74371 21.3133 7.49989C21.3485 7.24847 21.3662 6.93719 21.2604 6.6098L19.4328 7.2C19.4085 7.12507 19.4304 7.1007 19.4118 7.23368C19.3921 7.37428 19.3485 7.56697 19.2705 7.90546L21.1412 8.33719ZM19.4328 7.2L21.2604 6.6098C21.117 6.16604 20.817 5.7908 20.4187 5.55248L19.4328 7.2Z" fill="white"/>
</g>
</g>
<defs>
<clipPath id="clip0_1_1087">
<rect width="24" height="24" fill="white"/>
</clipPath>
<clipPath id="clip1_1_1087">
<rect width="24" height="24" fill="white"/>
</clipPath>
</defs>
</svg>
