<svg width="38" height="36" viewBox="0 0 38 36" fill="none" xmlns="http://www.w3.org/2000/svg">
<path d="M30.6231 27.0657C30.7512 27.0613 30.8753 27.0199 30.9804 26.9466C31.0856 26.8732 31.1673 26.7711 31.2158 26.6524C31.2642 26.5337 31.2774 26.4035 31.2536 26.2776C31.2299 26.1516 31.1702 26.0352 31.0818 25.9423C30.5775 25.4513 30.0303 25.0064 29.4468 24.6129C29.3744 24.564 29.293 24.5299 29.2074 24.5124C29.1218 24.495 29.0336 24.4946 28.9478 24.5112C28.8621 24.5278 28.7804 24.5612 28.7075 24.6094C28.6346 24.6576 28.572 24.7197 28.5231 24.7921C28.4244 24.9384 28.3878 25.1179 28.4214 25.2911C28.455 25.4643 28.5561 25.6171 28.7023 25.7158C29.2203 26.0684 29.7032 26.4691 30.1449 26.9126C30.2781 27.0241 30.45 27.0792 30.6231 27.0657ZM26.6349 23.1838C24.6501 22.5297 22.5224 22.4414 20.4902 22.9286C18.458 23.4158 16.6017 24.4594 15.1292 25.9423C15.004 26.0666 14.9332 26.2356 14.9326 26.4121C14.9319 26.5885 15.0014 26.758 15.1257 26.8833C15.25 27.0085 15.419 27.0793 15.5955 27.0799C15.7719 27.0806 15.9414 27.0111 16.0667 26.8868C17.3681 25.576 19.0095 24.6544 20.8062 24.2257C22.6029 23.797 24.4835 23.8783 26.2366 24.4604C26.3629 24.5066 26.5002 24.5134 26.6305 24.4799C26.7608 24.4465 26.8778 24.3743 26.9663 24.273C27.0547 24.1717 27.1104 24.0459 27.1259 23.9123C27.1414 23.7787 27.1161 23.6435 27.0532 23.5246C27.0112 23.4456 26.9537 23.3759 26.8842 23.3197C26.8146 23.2634 26.7344 23.2218 26.6484 23.1973L26.6349 23.1838ZM7.3723 24.925C5.67096 24.3207 4.5739 23.4431 4.10926 22.3325C4.04789 22.1978 3.94329 22.0873 3.81203 22.0188C3.68077 21.9502 3.53039 21.9275 3.38472 21.9541C3.31139 21.96 3.23806 21.96 3.16531 21.9541C2.81274 21.9665 2.46969 21.8383 2.21163 21.5977C1.95358 21.3572 1.80165 21.0239 1.78928 20.6714C1.77691 20.3188 1.90511 19.9757 2.14567 19.7177C2.38623 19.4596 2.71946 19.3077 3.07203 19.2953C3.1979 19.2877 3.31902 19.2445 3.42123 19.1706C3.52345 19.0968 3.60255 18.9954 3.6493 18.8783C3.69605 18.7612 3.70851 18.6332 3.68525 18.5092C3.66198 18.3853 3.60394 18.2705 3.5179 18.1783C3.29294 17.923 3.17463 17.591 3.1874 17.2509C3.20017 16.9108 3.34305 16.5886 3.58654 16.3509C3.82954 16.1128 4.15456 15.977 4.4947 15.9713C4.64899 15.9725 4.8027 16.0018 4.94643 16.0581C5.16878 16.1491 5.4228 16.1139 5.61112 15.9648C5.78654 15.8229 5.88275 15.6052 5.87043 15.3799C5.85095 15.3582 5.83511 15.3334 5.8235 15.3066C5.8235 15.132 5.8579 14.9591 5.92475 14.7977C5.99159 14.6364 6.08957 14.4898 6.21307 14.3664C6.33658 14.2429 6.4832 14.145 6.64456 14.0782C6.80591 14.0115 6.97884 13.9771 7.15347 13.9772C7.32243 13.9772 7.48963 14.0118 7.6451 14.0769C7.81934 14.1503 8.01587 14.1503 8.1907 14.0769C8.36142 13.9919 8.48755 13.8364 8.53566 13.6516C8.58682 13.4543 8.68265 13.2714 8.81575 13.117C8.94884 12.9627 9.11564 12.8409 9.30325 12.7613C9.49087 12.6816 9.69429 12.6461 9.89779 12.6576C10.1013 12.6691 10.2994 12.7271 10.4769 12.8273C10.6259 12.9116 10.8016 12.9351 10.9675 12.893C11.1334 12.851 11.2767 12.7465 11.3675 12.6015C11.4715 12.4411 11.6088 12.3051 11.7702 12.2026C11.9315 12.1002 12.1131 12.0338 12.3024 12.008C12.4918 11.9821 12.6845 11.9975 12.8674 12.0529C13.0503 12.1084 13.219 12.2026 13.3622 12.3293C13.6144 12.5575 13.9993 12.5575 14.2521 12.3293C14.4956 12.1123 14.8104 11.9924 15.1365 11.9924C15.4627 11.9924 15.7774 12.1123 16.0209 12.3293C16.1431 12.4395 16.3017 12.5005 16.4662 12.5005C16.6307 12.5005 16.7894 12.4395 16.9115 12.3293C17.0546 12.2027 17.2234 12.1085 17.4062 12.0532C17.589 11.9978 17.7816 11.9825 17.9709 12.0083C18.1602 12.0342 18.3417 12.1005 18.503 12.2029C18.6643 12.3053 18.8016 12.4412 18.9056 12.6015C19.0939 12.903 19.4864 13.0028 19.7961 12.8273C19.9718 12.7293 20.1674 12.6725 20.3682 12.661C20.569 12.6496 20.7697 12.6839 20.9554 12.7613C21.141 12.8388 21.3066 12.9574 21.4397 13.1081C21.5729 13.2589 21.67 13.4379 21.7239 13.6317C21.7726 13.8165 21.8982 13.9719 22.0701 14.057C22.2437 14.1303 22.4397 14.1303 22.6145 14.057C22.7717 13.9983 22.9389 13.9713 23.1061 13.9772C23.4587 13.9772 23.7968 14.1173 24.0461 14.3666C24.2954 14.6159 24.4355 14.954 24.4355 15.3066C24.4391 15.3378 24.4391 15.3693 24.4355 15.4005C24.4268 15.5115 24.4461 15.623 24.4917 15.7246C24.5372 15.8262 24.6076 15.9148 24.6963 15.9822C24.785 16.0496 24.8892 16.0936 24.9993 16.1103C25.1094 16.1269 25.222 16.1156 25.3266 16.0775C25.4651 16.0165 25.6141 15.9807 25.7649 15.9719C26.1174 15.9719 26.4555 16.1118 26.7049 16.361C26.9543 16.6102 27.0945 16.9482 27.0949 17.3007C27.1 17.4735 27.1722 17.6375 27.2963 17.7579C27.4203 17.8783 27.5864 17.9456 27.7593 17.9456C27.9321 17.9456 28.0982 17.8783 28.2222 17.7579C28.3463 17.6375 28.4185 17.4735 28.4237 17.3007C28.4237 16.9442 28.3521 16.5913 28.213 16.2631C28.074 15.9348 27.8704 15.6379 27.6143 15.3899C27.3583 15.1418 27.055 14.9478 26.7224 14.8193C26.3899 14.6908 26.0349 14.6305 25.6786 14.6419C25.5313 14.0715 25.1987 13.5662 24.7331 13.2053C24.2675 12.8444 23.6952 12.6483 23.1061 12.6478C22.9888 12.6384 22.8714 12.6384 22.7541 12.6478C22.5204 12.2432 22.1841 11.9073 21.7793 11.6739C21.3744 11.4405 20.9152 11.3179 20.4479 11.3184C20.1839 11.3184 19.9217 11.3589 19.67 11.4381C19.2522 11.0303 18.7133 10.7691 18.1343 10.6936C17.5554 10.6182 16.9675 10.7327 16.4592 11.0198C16.055 10.7866 15.5967 10.6639 15.1301 10.6639C14.6635 10.6639 14.2051 10.7866 13.801 11.0198C13.2926 10.7326 12.7048 10.6181 12.1258 10.6935C11.5468 10.7689 11.0079 11.0302 10.5902 11.4381C10.3385 11.3585 10.0762 11.3182 9.81224 11.3184C9.34494 11.3179 8.88575 11.4405 8.48089 11.6739C8.07604 11.9073 7.73981 12.2432 7.50606 12.6478C7.38872 12.6384 7.27139 12.6384 7.15406 12.6478C6.5648 12.6481 5.99233 12.8441 5.52666 13.2052C5.06098 13.5663 4.72851 14.0719 4.58152 14.6425C4.22518 14.6309 3.87014 14.691 3.53751 14.8194C3.20488 14.9477 2.90147 15.1417 2.64532 15.3897C2.38916 15.6376 2.18551 15.9346 2.04646 16.2629C1.90741 16.5912 1.83581 16.9441 1.83592 17.3007C1.83651 17.621 1.89576 17.9384 2.00899 18.2382C1.47641 18.4995 1.0465 18.9314 0.787646 19.4652C0.528787 19.999 0.455841 20.604 0.580409 21.184C0.704978 21.764 1.01991 22.2857 1.47511 22.6662C1.93031 23.0466 2.49965 23.2639 3.09256 23.2835C3.96748 24.693 5.33797 25.7243 6.93464 26.1746C7.00504 26.2004 7.07896 26.2139 7.15347 26.2145C7.43507 26.2133 7.68558 26.035 7.77886 25.7692C7.83634 25.6034 7.82591 25.4216 7.74986 25.2634C7.6738 25.1053 7.5377 24.9836 7.3723 24.925Z" fill="white"/>
<path d="M36.2275 26.2151C36.3407 25.9159 36.3994 25.5979 36.4 25.2782C36.4 24.9217 36.3284 24.5689 36.1893 24.2406C36.0503 23.9124 35.8467 23.6154 35.5906 23.3674C35.3346 23.1194 35.0313 22.9253 34.6987 22.7969C34.3662 22.6684 34.0112 22.608 33.6549 22.6194C33.4969 21.9862 33.1117 21.4331 32.5725 21.0653C32.0332 20.6975 31.3777 20.5407 30.7304 20.6248C30.3942 20.0298 29.8419 19.5872 29.1881 19.3887C28.6863 19.229 28.1474 19.229 27.6457 19.3887C27.2244 18.986 26.6842 18.7303 26.1057 18.6597C25.5272 18.5891 24.9413 18.7073 24.4355 18.9968C24.0313 18.7635 23.5728 18.6407 23.1061 18.6407C22.6394 18.6407 22.1809 18.7635 21.7767 18.9968C21.2685 18.7096 20.6807 18.5951 20.1018 18.6705C19.5229 18.7459 18.9842 19.0072 18.5665 19.4151C18.3148 19.3357 18.0524 19.2955 17.7885 19.296C17.3213 19.2955 16.8621 19.4181 16.4572 19.6515C16.0524 19.8849 15.7162 20.2208 15.4824 20.6253C15.365 20.6154 15.2471 20.6154 15.1304 20.6253C14.5411 20.6253 13.9685 20.8212 13.5027 21.1822C13.0369 21.5432 12.7043 22.0488 12.5572 22.6194C12.1204 22.6057 11.6868 22.6999 11.295 22.8937C10.9032 23.0875 10.5652 23.3748 10.3109 23.7303C10.0566 24.0858 9.89385 24.4986 9.83706 24.932C9.78027 25.3654 9.83118 25.8061 9.98529 26.2151C9.45271 26.4764 9.02281 26.9083 8.76395 27.4421C8.50509 27.9759 8.43214 28.5809 8.55671 29.1609C8.68128 29.741 8.99621 30.2627 9.45141 30.6431C9.90661 31.0235 10.476 31.2408 11.0689 31.2604C12.5109 33.9192 16.5524 35.2486 23.1061 35.2486C24.693 35.258 26.2788 35.1606 27.8522 34.9559C27.9395 34.9436 28.0235 34.9143 28.0995 34.8696C28.1754 34.8248 28.2419 34.7656 28.2949 34.6952C28.348 34.6248 28.3867 34.5447 28.4087 34.4594C28.4308 34.374 28.4359 34.2852 28.4236 34.1979C28.4114 34.1106 28.3821 34.0266 28.3373 33.9506C28.2926 33.8747 28.2334 33.8083 28.163 33.7552C28.0926 33.7021 28.0125 33.6635 27.9271 33.6414C27.8418 33.6193 27.753 33.6142 27.6657 33.6265C26.1544 33.8277 24.6314 33.9257 23.1061 33.9192C16.878 33.9192 13.0694 32.6696 12.0861 30.3095C12.0247 30.1746 11.92 30.0642 11.7886 29.9957C11.6573 29.9271 11.5068 29.9044 11.361 29.9311C11.2883 29.9369 11.2149 29.9369 11.1422 29.9311C10.9676 29.9372 10.7935 29.9089 10.6299 29.8478C10.4662 29.7867 10.3162 29.694 10.1884 29.5749C9.93033 29.3344 9.77833 29.0012 9.76588 28.6486C9.75343 28.296 9.88156 27.9529 10.1221 27.6948C10.3626 27.4367 10.6958 27.2847 11.0483 27.2723C11.1743 27.2649 11.2956 27.2218 11.398 27.148C11.5003 27.0742 11.5796 26.9727 11.6263 26.8555C11.6731 26.7383 11.6855 26.6102 11.6621 26.4862C11.6387 26.3622 11.5805 26.2474 11.4942 26.1553C11.4464 26.1004 11.4022 26.0426 11.3616 25.9822C11.2213 25.774 11.145 25.5293 11.1422 25.2782C11.1422 25.1036 11.1766 24.9308 11.2434 24.7695C11.3102 24.6082 11.4081 24.4616 11.5316 24.3382C11.655 24.2147 11.8016 24.1168 11.9629 24.05C12.1241 23.9832 12.297 23.9488 12.4716 23.9488C12.6259 23.9494 12.7796 23.9787 12.9233 24.0351C13.1363 24.1137 13.3739 24.0785 13.5546 23.9418C13.73 23.7998 13.8262 23.5822 13.8139 23.3569C13.8063 23.3333 13.802 23.3088 13.801 23.2841C13.801 22.9315 13.941 22.5933 14.1903 22.3439C14.4396 22.0945 14.7777 21.9543 15.1304 21.9542C15.2993 21.9547 15.4665 21.9888 15.622 22.0539C15.7962 22.1272 15.9928 22.1272 16.167 22.0539C16.3383 21.9688 16.4639 21.8134 16.5131 21.6286C16.5644 21.4314 16.6603 21.2486 16.7934 21.0944C16.9264 20.9401 17.0932 20.8185 17.2807 20.7389C17.4682 20.6593 17.6715 20.6239 17.8749 20.6353C18.0783 20.6468 18.2764 20.7048 18.4538 20.8049C18.6029 20.8891 18.7786 20.9125 18.9445 20.8703C19.1104 20.8281 19.2537 20.7236 19.3444 20.5784C19.4483 20.4181 19.5857 20.282 19.747 20.1796C19.9084 20.0772 20.0899 20.0108 20.2793 19.9849C20.4687 19.9591 20.6614 19.9744 20.8443 20.0298C21.0272 20.0853 21.1959 20.1796 21.3391 20.3062C21.4611 20.4162 21.6197 20.4771 21.784 20.4771C21.9484 20.4771 22.1069 20.4162 22.229 20.3062C22.4725 20.0892 22.7873 19.9693 23.1134 19.9693C23.4396 19.9693 23.7543 20.0892 23.9978 20.3062C24.2501 20.5344 24.6355 20.5344 24.8878 20.3062C25.0309 20.1796 25.1997 20.0853 25.3826 20.0298C25.5655 19.9744 25.7582 19.9591 25.9476 19.9849C26.1369 20.0108 26.3185 20.0772 26.4798 20.1796C26.6412 20.282 26.7785 20.4181 26.8825 20.5784C27.0708 20.88 27.4633 20.9797 27.773 20.8049C27.9265 20.7131 28.0977 20.6549 28.2753 20.6343C28.4529 20.6137 28.6328 20.631 28.8032 20.6852C29.0188 20.7505 29.2143 20.8694 29.3713 21.031C29.5283 21.1925 29.6417 21.3912 29.7008 21.6086C29.7489 21.7934 29.8751 21.9489 30.0464 22.0339C30.2206 22.1073 30.4171 22.1073 30.5908 22.0339C30.7486 21.9753 30.9152 21.9483 31.0836 21.9542C31.2582 21.9542 31.431 21.9887 31.5923 22.0556C31.7535 22.1224 31.9 22.2204 32.0234 22.3439C32.1468 22.4674 32.2447 22.614 32.3114 22.7753C32.3782 22.9367 32.4125 23.1095 32.4124 23.2841C32.4159 23.3149 32.4159 23.346 32.4124 23.3768C32.4035 23.488 32.4226 23.5996 32.4681 23.7014C32.5136 23.8032 32.5839 23.8919 32.6726 23.9594C32.7614 24.0269 32.8656 24.0711 32.9759 24.0878C33.0861 24.1045 33.1988 24.0932 33.3035 24.055C33.442 23.9934 33.591 23.9576 33.7418 23.9488C34.0854 23.9511 34.4148 24.0864 34.6607 24.3265C34.9066 24.5665 35.05 24.8925 35.0606 25.236C35.0716 25.5793 34.9492 25.9136 34.7192 26.1688C34.6371 26.2612 34.5825 26.3747 34.5614 26.4965C34.5404 26.6183 34.5538 26.7436 34.6 26.8582C34.6463 26.9728 34.7237 27.0722 34.8234 27.1453C34.9231 27.2184 35.0412 27.2621 35.1644 27.2717C35.5147 27.2874 35.8447 27.4407 36.0826 27.6984C36.3204 27.956 36.447 28.2971 36.4347 28.6476C36.4224 28.998 36.2723 29.3294 36.0169 29.5698C35.7616 29.8101 35.4217 29.94 35.0712 29.9311C34.9984 29.9369 34.9245 29.9369 34.8517 29.9311C34.703 29.9064 34.5503 29.9331 34.4186 30.0066C34.287 30.0802 34.1842 30.1963 34.1272 30.3359C33.6092 31.5855 32.2997 32.523 30.2323 33.1343C30.1485 33.1587 30.0703 33.1994 30.0022 33.254C29.9341 33.3087 29.8775 33.3762 29.8355 33.4527C29.7935 33.5293 29.7669 33.6133 29.7574 33.7001C29.7479 33.7869 29.7556 33.8747 29.78 33.9585C29.8044 34.0423 29.8451 34.1205 29.8998 34.1886C29.9544 34.2567 30.0219 34.3134 30.0985 34.3554C30.175 34.3974 30.2591 34.4239 30.3459 34.4334C30.4326 34.4429 30.5205 34.4353 30.6043 34.4108C32.8512 33.7462 34.3736 32.7025 35.1445 31.2868C35.7371 31.2667 36.306 31.0491 36.7609 30.6687C37.2157 30.2882 37.5303 29.7667 37.6549 29.187C37.7794 28.6072 37.7066 28.0025 37.4481 27.4688C37.1896 26.9352 36.7602 26.5032 36.2281 26.2415L36.2275 26.2151ZM20.1147 17.3013C20.1903 17.3495 20.275 17.3818 20.3634 17.3965C20.4519 17.4111 20.5425 17.4076 20.6296 17.3863C20.7167 17.365 20.7986 17.3263 20.8704 17.2725C20.9422 17.2187 21.0023 17.151 21.0472 17.0733C21.0921 16.9956 21.1208 16.9097 21.1316 16.8207C21.1424 16.7316 21.1351 16.6413 21.11 16.5552C21.085 16.4691 21.0428 16.3889 20.986 16.3195C20.9292 16.2501 20.8589 16.1929 20.7794 16.1514C18.6246 14.9133 16.1218 14.4201 13.6584 14.7481C11.195 15.0761 8.90851 16.2071 7.15287 17.966C7.02769 18.0903 6.95703 18.2593 6.95642 18.4357C6.95582 18.6121 7.02532 18.7815 7.14964 18.9067C7.27396 19.0319 7.44291 19.1025 7.61933 19.1032C7.79575 19.1038 7.96518 19.0343 8.09036 18.9099C9.63867 17.3567 11.6559 16.3572 13.8297 16.0664C16.0035 15.7756 18.2125 16.2096 20.1147 17.3013ZM18.5659 8.36754C18.6146 8.44023 18.6773 8.50257 18.7502 8.55097C18.8231 8.59937 18.9049 8.63287 18.9908 8.64956C19.0768 8.66624 19.1651 8.66577 19.2509 8.64818C19.3366 8.63059 19.4181 8.59622 19.4905 8.54706C19.6367 8.44839 19.7378 8.29569 19.7714 8.12252C19.8051 7.94936 19.7686 7.76991 19.67 7.62364C19.6231 7.55031 18.5066 5.84194 19.5832 4.77831C19.8481 4.53624 20.0612 4.24302 20.2097 3.91633C20.3583 3.58965 20.4391 3.23627 20.4473 2.87751C20.4182 2.12827 20.11 1.417 19.5832 0.883431C19.4589 0.761677 19.2919 0.693481 19.1179 0.693481C18.944 0.693481 18.777 0.761677 18.6527 0.883431C18.5904 0.945225 18.5409 1.01875 18.5072 1.09975C18.4734 1.18076 18.456 1.26765 18.456 1.3554C18.456 1.44316 18.4734 1.53005 18.5072 1.61106C18.5409 1.69206 18.5904 1.76558 18.6527 1.82738C18.7942 1.95213 18.9075 2.10555 18.9851 2.27746C19.0627 2.44936 19.1028 2.63581 19.1028 2.82442C19.1028 3.01302 19.0627 3.19947 18.9851 3.37138C18.9075 3.54328 18.7942 3.69671 18.6527 3.82146C17.1567 5.33682 17.9417 7.44412 18.5665 8.36812L18.5659 8.36754ZM15.243 8.36754C15.2918 8.44007 15.3543 8.50226 15.4272 8.55056C15.5 8.59886 15.5817 8.6323 15.6674 8.64898C15.7532 8.66566 15.8415 8.66524 15.9271 8.64775C16.0127 8.63026 16.094 8.59604 16.1664 8.54706C16.2389 8.49825 16.301 8.43565 16.3493 8.36281C16.3975 8.28997 16.4309 8.20833 16.4476 8.12257C16.4643 8.03681 16.4639 7.94859 16.4464 7.86298C16.429 7.77737 16.3948 7.69604 16.3459 7.62364C16.2996 7.55031 15.1832 5.84194 16.2597 4.77831C16.5246 4.53624 16.7378 4.24302 16.8863 3.91633C17.0348 3.58965 17.1156 3.23627 17.1239 2.87751C17.0948 2.12826 16.7865 1.41697 16.2597 0.883431C16.1354 0.761677 15.9684 0.693481 15.7945 0.693481C15.6205 0.693481 15.4535 0.761677 15.3292 0.883431C15.267 0.945264 15.2176 1.0188 15.1839 1.0998C15.1502 1.1808 15.1328 1.26767 15.1328 1.3554C15.1328 1.44314 15.1502 1.53001 15.1839 1.61101C15.2176 1.69201 15.267 1.76554 15.3292 1.82738C15.4707 1.95213 15.584 2.10555 15.6616 2.27746C15.7392 2.44936 15.7793 2.63581 15.7793 2.82442C15.7793 3.01302 15.7392 3.19947 15.6616 3.37138C15.584 3.54328 15.4707 3.69671 15.3292 3.82146C13.8332 5.33682 14.6182 7.44412 15.243 8.36812V8.36754ZM21.8899 8.36754C21.9387 8.44015 22.0013 8.50242 22.0742 8.55076C22.1471 8.59911 22.2288 8.63259 22.3146 8.64927C22.4005 8.66595 22.4888 8.66551 22.5745 8.64797C22.6602 8.63042 22.7415 8.59613 22.8139 8.54706C22.9602 8.44839 23.0612 8.29569 23.0949 8.12252C23.1286 7.94936 23.0921 7.76991 22.9935 7.62364C22.9465 7.55031 21.8301 5.84194 22.9066 4.77831C23.1715 4.53624 23.3847 4.24302 23.5332 3.91633C23.6817 3.58965 23.7625 3.23627 23.7708 2.87751C23.7417 2.12826 23.4335 1.41697 22.9066 0.883431C22.7824 0.761677 22.6154 0.693481 22.4414 0.693481C22.2674 0.693481 22.1004 0.761677 21.9762 0.883431C21.9139 0.945225 21.8644 1.01875 21.8306 1.09975C21.7969 1.18076 21.7795 1.26765 21.7795 1.3554C21.7795 1.44316 21.7969 1.53005 21.8306 1.61106C21.8644 1.69206 21.9139 1.76558 21.9762 1.82738C22.1176 1.95213 22.2309 2.10555 22.3085 2.27746C22.3861 2.44936 22.4263 2.63581 22.4263 2.82442C22.4263 3.01302 22.3861 3.19947 22.3085 3.37138C22.2309 3.54328 22.1176 3.69671 21.9762 3.82146C20.4802 5.33682 21.2651 7.44412 21.8899 8.36812V8.36754Z" fill="white"/>
</svg>
