<svg width="159" height="99" viewBox="0 0 159 99" fill="none" xmlns="http://www.w3.org/2000/svg">
<mask id="mask0_2_2" style="mask-type:luminance" maskUnits="userSpaceOnUse" x="0" y="0" width="159" height="99">
<path d="M159 0H0V98.4286H159V0Z" fill="white"/>
</mask>
<g mask="url(#mask0_2_2)">
<path d="M14.4747 71.7597C16.4883 72.0862 18.0106 72.808 19.0418 73.9252C20.0731 75.0425 20.5886 76.53 20.5886 78.3879C20.5886 80.6474 19.8028 82.3671 18.2313 83.5471C16.6597 84.7271 14.3148 85.3169 11.1965 85.3169H0V58.9559H10.46C13.1856 58.9559 15.3216 59.5334 16.8686 60.6883C18.4154 61.8432 19.1891 63.5002 19.1891 65.6592C19.1891 67.2408 18.7715 68.5462 17.9368 69.5757C17.102 70.6048 15.948 71.3328 14.4747 71.7597ZM10.4969 60.0855H1.25228V71.3832H10.4969C12.8787 71.3832 14.7202 70.9 16.0215 69.9333C17.3227 68.9667 17.9737 67.5672 17.9737 65.7343C17.9737 63.9015 17.3231 62.502 16.0215 61.5353C14.7202 60.5687 12.8787 60.0855 10.4969 60.0855ZM11.2702 84.187C13.9465 84.187 15.9601 83.71 17.3106 82.756C18.6612 81.802 19.3363 80.3333 19.3363 78.3499C19.3363 76.3414 18.6612 74.86 17.3106 73.906C15.9601 72.9521 13.9468 72.4751 11.2702 72.4751H1.25228V84.187H11.2702ZM46.8859 85.3169L43.4239 77.5968H27.9916L24.5296 85.3169H23.1669L35.1002 58.9559H36.3156L48.2489 85.3169H46.8859ZM28.4705 76.5047H42.9453L35.7263 60.4243L28.4705 76.5047ZM72.8519 85.3169H71.3786L65.0068 76.2413C64.1721 76.3918 63.2391 76.4673 62.2078 76.4673H54.51V85.3169H53.2577V58.9559H62.2078C65.4244 58.9559 67.935 59.7278 69.7396 61.272C71.5443 62.8161 72.4468 64.9562 72.4468 67.6927C72.4468 69.8017 71.9128 71.5653 70.8447 72.9839C69.7765 74.4022 68.2482 75.3878 66.2591 75.9402L72.8519 85.3169ZM54.51 75.2996H62.2813C65.1541 75.2996 67.3639 74.6406 68.9109 73.3227C70.458 72.0046 71.2314 70.1281 71.2314 67.6927C71.2314 65.2827 70.458 63.4186 68.9109 62.1004C67.3642 60.7823 65.1541 60.1235 62.2813 60.1235H54.51V75.2996ZM87.7318 84.1493H103.311V85.3166H85.8533V84.4127L96.9026 73.0398C98.4003 71.5084 99.4132 70.1967 99.941 69.1045C100.469 68.0124 100.733 66.889 100.733 65.734C100.733 63.9515 100.138 62.5456 98.9467 61.5161C97.7558 60.4867 96.0554 59.972 93.8456 59.972C92.1268 59.972 90.6351 60.2292 89.3707 60.7439C88.106 61.2586 87.0197 62.0556 86.1112 63.1351L85.2641 62.3066C87.2528 59.9717 90.1257 58.8044 93.8825 58.8044C96.3626 58.8044 98.3269 59.4196 99.7754 60.6496C101.224 61.8797 101.948 63.5493 101.948 65.6583C101.948 66.9888 101.653 68.2692 101.064 69.4996C100.475 70.7296 99.3823 72.161 97.7863 73.7926L87.7318 84.1493ZM114.545 58.805C117.86 58.805 120.383 59.9723 122.114 62.3072C123.845 64.6422 124.71 67.8933 124.71 72.0608C124.71 74.9732 124.25 77.4271 123.329 79.4232C122.408 81.419 121.113 82.9254 119.443 83.9422C117.774 84.9589 115.809 85.4675 113.55 85.4675C111.169 85.4675 109.278 85.0282 107.879 84.1493L108.431 83.1325C109.634 83.911 111.328 84.2998 113.514 84.2998C116.607 84.2998 119.038 83.2704 120.806 81.2119C122.574 79.1533 123.458 76.1655 123.458 72.2491C123.458 70.6926 123.335 69.3367 123.09 68.1821C122.672 70.1151 121.696 71.6277 120.162 72.7199C118.627 73.8121 116.804 74.358 114.692 74.358C112.998 74.358 111.5 74.0442 110.199 73.4167C108.898 72.7891 107.897 71.8914 107.197 70.7241C106.498 69.5568 106.148 68.1948 106.148 66.6383C106.148 65.0818 106.51 63.7135 107.234 62.5335C107.959 61.3536 108.953 60.4373 110.218 59.7844C111.482 59.1315 112.924 58.805 114.545 58.805ZM114.803 73.2661C116.276 73.2661 117.59 72.9712 118.744 72.3811C119.898 71.7913 120.794 70.9813 121.432 69.9522C122.071 68.9228 122.39 67.7805 122.39 66.5254C122.39 65.4209 122.089 64.3599 121.487 63.3432C120.886 62.3264 119.99 61.5041 118.799 60.8766C117.608 60.249 116.19 59.9353 114.545 59.9353C112.409 59.9353 110.684 60.5439 109.37 61.7616C108.056 62.9793 107.4 64.5924 107.4 66.6009C107.4 68.6344 108.063 70.2536 109.389 71.459C110.714 72.6636 112.519 73.2661 114.803 73.2661ZM127.141 58.9559H134.839V85.3169H133.624V60.1232H127.141V58.9559ZM140.842 58.9559H159V59.8598L147.656 85.3169H146.293L157.564 60.1232H142.058V65.3201H140.842V58.9559Z" fill="#F7F0F0"/>
<path d="M14.3845 98.4292C13.9711 98.4292 13.5777 98.3541 13.205 98.2039C12.8323 98.0537 12.5452 97.8589 12.3439 97.6196L12.4908 97.4193C12.6813 97.6417 12.9465 97.8241 13.2864 97.9659C13.6264 98.1076 13.9895 98.1785 14.3759 98.1785C14.9473 98.1785 15.3782 98.0631 15.6695 97.8322C15.9608 97.6014 16.1061 97.3052 16.1061 96.9436C16.1061 96.6656 16.0298 96.4416 15.8775 96.2718C15.7252 96.1021 15.5375 95.9743 15.3143 95.8878C15.0911 95.8017 14.7864 95.7113 14.4004 95.6167C13.987 95.511 13.655 95.4079 13.4047 95.3078C13.1545 95.2076 12.9423 95.0548 12.7681 94.8486C12.5938 94.6428 12.507 94.3674 12.507 94.0224C12.507 93.75 12.5776 93.4996 12.7191 93.2713C12.8606 93.0434 13.0769 92.861 13.3678 92.7248C13.6588 92.5885 14.022 92.5202 14.4573 92.5202C14.7673 92.5202 15.0736 92.5674 15.3754 92.662C15.6775 92.7566 15.9344 92.8873 16.1465 93.0541L16.0241 93.2795C15.8008 93.1127 15.5522 92.9859 15.2774 92.8997C15.0027 92.8135 14.7321 92.7703 14.4652 92.7703C13.9103 92.7703 13.4899 92.8886 13.2044 93.125C12.9188 93.3614 12.776 93.6605 12.776 94.0221C12.776 94.306 12.8536 94.5326 13.0085 94.7023C13.1637 94.8721 13.3538 95.0015 13.5799 95.0902C13.8057 95.1793 14.1091 95.271 14.4901 95.3656C14.9035 95.4713 15.2354 95.5728 15.4857 95.6703C15.736 95.7675 15.9468 95.9177 16.1182 96.121C16.2896 96.3242 16.3752 96.5954 16.3752 96.9345C16.3752 97.207 16.303 97.4573 16.1589 97.6856C16.0149 97.9135 15.7929 98.0946 15.4937 98.2279C15.1954 98.3622 14.8252 98.4292 14.3845 98.4292ZM21.2892 98.4292C20.582 98.4292 20.0309 98.2179 19.6366 97.7948C19.2422 97.3721 19.0448 96.7518 19.0448 95.934V92.5544H19.3224V95.9259C19.3224 96.6714 19.4909 97.232 19.8283 97.6072C20.1657 97.9825 20.6526 98.1704 21.2892 98.1704C21.9204 98.1704 22.406 97.9828 22.746 97.6072C23.0859 97.2317 23.256 96.6711 23.256 95.9259V92.5544H23.5254V95.934C23.5254 96.7518 23.3295 97.3721 22.9377 97.7948C22.5459 98.2175 21.9964 98.4292 21.2892 98.4292ZM28.2343 98.4292C27.8209 98.4292 27.4276 98.3541 27.0549 98.2039C26.6822 98.0537 26.395 97.8589 26.1937 97.6196L26.3406 97.4193C26.5311 97.6417 26.7963 97.8241 27.1363 97.9659C27.4762 98.1076 27.8394 98.1785 28.2257 98.1785C28.7972 98.1785 29.2281 98.0631 29.5194 97.8322C29.8107 97.6014 29.956 97.3052 29.956 96.9436C29.956 96.6656 29.8797 96.4416 29.7273 96.2718C29.575 96.1021 29.3874 95.9743 29.1642 95.8878C28.9409 95.8017 28.6363 95.7113 28.2502 95.6167C27.8368 95.511 27.5048 95.4079 27.2546 95.3078C27.0043 95.2076 26.7922 95.0548 26.6179 94.8486C26.4437 94.6428 26.3569 94.3674 26.3569 94.0224C26.3569 93.75 26.4275 93.4996 26.569 93.2713C26.7105 93.0434 26.9267 92.861 27.2177 92.7248C27.5087 92.5885 27.8718 92.5202 28.3072 92.5202C28.6172 92.5202 28.9234 92.5674 29.2252 92.662C29.527 92.7566 29.7843 92.8873 29.9964 93.0541L29.8739 93.2795C29.651 93.1127 29.402 92.9859 29.1273 92.8997C28.8525 92.8135 28.5819 92.7703 28.3151 92.7703C27.7602 92.7703 27.3398 92.8886 27.0542 93.125C26.7687 93.3614 26.6259 93.6605 26.6259 94.0221C26.6259 94.306 26.7035 94.5326 26.8583 94.7023C27.0135 94.8721 27.2037 95.0015 27.4298 95.0902C27.6559 95.179 27.9589 95.271 28.3399 95.3656C28.7533 95.4713 29.0853 95.5728 29.3356 95.6703C29.5858 95.7675 29.7967 95.9177 29.9681 96.121C30.1395 96.3242 30.225 96.5954 30.225 96.9345C30.225 97.207 30.1528 97.4573 30.0088 97.6856C29.8647 97.9135 29.6428 98.0946 29.3435 98.2279C29.0452 98.3622 28.6751 98.4292 28.2343 98.4292ZM37.2283 92.5544H37.5059V98.3957H37.2283V95.5585H33.2212V98.3957H32.9436V92.5544H33.2212V95.3H37.2283V92.5544ZM40.8192 98.3957V92.5544H41.0968V98.3957H40.8192ZM52.9715 92.5544C53.6842 92.5544 54.2407 92.7254 54.6404 93.0675C55.0405 93.4095 55.2402 93.8839 55.2402 94.4903C55.2402 95.1023 55.0401 95.5793 54.6404 95.9216C54.2404 96.2637 53.6842 96.4347 52.9715 96.4347H51.2658V98.3957H50.9882V92.5544H52.9715ZM52.9878 96.1759C53.6244 96.1759 54.1141 96.0299 54.4569 95.7379C54.7997 95.4459 54.9711 95.0301 54.9711 94.4903C54.9711 93.9561 54.7997 93.5432 54.4569 93.2512C54.1141 92.9592 53.6244 92.8132 52.9878 92.8132H51.2658V96.1762H52.9878V96.1759ZM57.9419 98.3957V92.5544H58.2195V98.3957H57.9419ZM61.2634 98.1369H65.4257V98.3957H60.8878V98.1954L64.9605 92.8129H60.9289V92.5541H65.336V92.7543L61.2634 98.1369ZM67.7274 98.1369H71.8897V98.3957H67.3518V98.1954L71.4245 92.8129H67.3928V92.5541H71.8V92.7543L67.7274 98.1369ZM78.7289 98.3957L77.9619 96.6851H74.5424L73.7754 98.3957H73.4733L76.1175 92.5544H76.3868L79.031 98.3957H78.7289ZM74.6483 96.4429H77.8557L76.2561 92.8795L74.6483 96.4429ZM95.1495 92.5544H95.4271L93.4765 98.3957H93.1989L91.3379 92.9465L89.4853 98.3957H89.1997L87.2491 92.5544H87.5429L89.3466 97.987L91.2076 92.5544H91.4769L93.3296 97.9951L95.1495 92.5544ZM100.251 98.4292C99.6956 98.4292 99.1935 98.3011 98.7448 98.0452C98.2958 97.7893 97.9437 97.4359 97.6878 96.9855C97.4321 96.5349 97.3042 96.0315 97.3042 95.4752C97.3042 94.9189 97.4321 94.4155 97.6878 93.9649C97.9434 93.5142 98.2958 93.1611 98.7448 92.9052C99.1938 92.6493 99.6956 92.5212 100.251 92.5212C100.805 92.5212 101.309 92.6493 101.76 92.9052C102.212 93.1611 102.566 93.5146 102.821 93.9649C103.077 94.4155 103.205 94.9189 103.205 95.4752C103.205 96.0315 103.077 96.5349 102.821 96.9855C102.566 97.4362 102.212 97.7893 101.76 98.0452C101.309 98.3011 100.805 98.4292 100.251 98.4292ZM100.251 98.1704C100.751 98.1704 101.205 98.0537 101.613 97.8199C102.021 97.5861 102.343 97.2635 102.576 96.8519C102.81 96.4403 102.927 95.9812 102.927 95.4749C102.927 94.9686 102.81 94.5095 102.576 94.0979C102.342 93.6862 102.021 93.3637 101.613 93.1299C101.205 92.8961 100.751 92.7794 100.251 92.7794C99.75 92.7794 99.2972 92.8961 98.8917 93.1299C98.4863 93.3637 98.1667 93.6862 97.9326 94.0979C97.6986 94.5095 97.5815 94.9686 97.5815 95.4749C97.5815 95.9812 97.6986 96.4403 97.9326 96.8519C98.1667 97.2635 98.4863 97.5861 98.8917 97.8199C99.2968 98.0537 99.75 98.1704 100.251 98.1704ZM110.134 98.3957L107.579 95.4167L106.217 96.8519V98.3957H105.939V92.5544H106.217V96.4848L109.954 92.5544H110.297L107.767 95.2248L110.477 98.396H110.134V98.3957ZM121.413 92.5544C122.125 92.5544 122.682 92.7254 123.082 93.0675C123.482 93.4095 123.681 93.8839 123.681 94.4903C123.681 95.1023 123.481 95.5793 123.082 95.9216C122.682 96.2637 122.125 96.4347 121.413 96.4347H119.707V98.3957H119.429V92.5544H121.413ZM121.429 96.1759C122.066 96.1759 122.556 96.0299 122.898 95.7379C123.241 95.4459 123.413 95.0301 123.413 94.4903C123.413 93.9561 123.241 93.5432 122.898 93.2512C122.556 92.9592 122.066 92.8132 121.429 92.8132H119.707V96.1762H121.429V96.1759ZM128.832 98.4292C128.277 98.4292 127.775 98.3011 127.326 98.0452C126.877 97.7893 126.525 97.4359 126.269 96.9855C126.013 96.5349 125.885 96.0315 125.885 95.4752C125.885 94.9189 126.013 94.4155 126.269 93.9649C126.525 93.5142 126.877 93.1611 127.326 92.9052C127.775 92.6493 128.277 92.5212 128.832 92.5212C129.387 92.5212 129.89 92.6493 130.342 92.9052C130.793 93.1611 131.147 93.5146 131.402 93.9649C131.658 94.4155 131.786 94.9189 131.786 95.4752C131.786 96.0315 131.658 96.5349 131.402 96.9855C131.147 97.4362 130.793 97.7893 130.342 98.0452C129.89 98.3011 129.387 98.4292 128.832 98.4292ZM128.832 98.1704C129.332 98.1704 129.787 98.0537 130.195 97.8199C130.603 97.5861 130.924 97.2635 131.158 96.8519C131.392 96.4403 131.509 95.9812 131.509 95.4749C131.509 94.9686 131.392 94.5095 131.158 94.0979C130.924 93.6862 130.603 93.3637 130.195 93.1299C129.787 92.8961 129.332 92.7794 128.832 92.7794C128.331 92.7794 127.878 92.8961 127.473 93.1299C127.067 93.3637 126.748 93.6862 126.514 94.0979C126.28 94.5095 126.163 94.9686 126.163 95.4749C126.163 95.9812 126.28 96.4403 126.514 96.8519C126.748 97.2635 127.067 97.5861 127.473 97.8199C127.878 98.0537 128.331 98.1704 128.832 98.1704ZM138.715 98.3957L136.161 95.4167L134.798 96.8519V98.3957H134.52V92.5544H134.798V96.4848L138.535 92.5544H138.878L136.348 95.2248L139.058 98.396H138.715V98.3957ZM141.71 98.1369H145.293V98.3957H141.433V92.5544H145.179V92.8132H141.71V95.3H144.812V95.5588H141.71V98.1369Z" fill="#2BC681"/>
<path d="M21.7334 14.6004C30.8266 14.6004 38.1978 22.1378 38.1978 31.4352C38.1978 40.7329 30.8263 48.2699 21.7334 48.2699C12.6402 48.2699 5.26892 40.7325 5.26892 31.4352C5.2686 22.1374 12.6402 14.6004 21.7334 14.6004Z" fill="#B44626" stroke="#F7F0F0" stroke-width="9.00519" stroke-miterlimit="36.3413"/>
<path d="M148.54 14.4767H117.346V46.3721H148.54V14.4767Z" fill="#EBDDD3" stroke="#F7F0F0" stroke-width="7.94689" stroke-miterlimit="36.3413"/>
<path d="M155.785 6.48714C155.725 6.40683 155.637 6.35415 155.54 6.34147L139.768 4.13174V2.26212L154.395 2.45266C154.49 2.45266 154.582 2.48615 154.651 2.41917C154.721 2.35186 154.761 2.32585 154.761 2.22473V0.373967C154.761 0.274147 154.721 0.178552 154.651 0.108645C154.581 0.0377618 154.486 -0.00125648 154.388 0.000369278L127.336 0.464034C127.134 0.464034 126.97 0.631487 126.97 0.837958V1.76139C126.97 1.96786 127.134 2.13531 127.336 2.13531L131.724 2.2101V3.00639L128.981 2.63247C128.784 2.60581 128.602 2.7453 128.572 2.94657L128.433 3.84756C128.402 4.04948 128.535 4.23937 128.733 4.27383L131.724 4.8009V24.1386C131.724 24.3451 131.887 24.5126 132.089 24.5126C132.291 24.5126 132.455 24.3451 132.455 24.1386V4.92804L133.552 5.11858V21.5212C133.552 21.7276 133.716 21.8951 133.918 21.8951C134.12 21.8951 134.284 21.7276 134.284 21.5212V5.24961L135.381 5.44405V23.3908C135.381 23.5973 135.544 23.7647 135.746 23.7647C135.948 23.7647 136.112 23.5973 136.112 23.3908V5.56729L137.209 5.76173C137.208 5.78026 137.208 5.79912 137.209 5.81765V17.0347C137.209 17.2412 137.373 17.4087 137.575 17.4087C137.777 17.4087 137.941 17.2412 137.941 17.0347V5.88886L139.038 6.0794V21.5212C139.038 21.7276 139.201 21.8951 139.403 21.8951C139.605 21.8951 139.769 21.7276 139.769 21.5212V6.1919L155.156 8.88773H155.219C155.401 8.88969 155.557 8.75442 155.585 8.57006L155.859 6.76775C155.871 6.66792 155.845 6.5668 155.785 6.48714ZM137.94 3.87V1.02817L139.037 1.00964V4.03062L137.94 3.87ZM134.283 3.36504V1.0919L135.38 1.07337V3.51851L134.283 3.36504ZM136.111 1.06199L137.209 1.04345V3.77668L136.111 3.62353V1.06199ZM154.029 1.84333L139.768 1.58158V0.998258L154.029 0.75537V1.84333ZM127.701 1.39462V1.20408L131.723 1.13677V1.46583L127.701 1.39462ZM132.455 1.12539L133.552 1.10686V3.26424L132.455 3.11109V1.12539ZM154.911 8.10607L129.211 3.60077L129.241 3.41381L155.075 7.02949L154.911 8.10607Z" fill="#B29C96"/>
<path d="M78.8176 49.2878C78.5896 49.2878 78.38 49.1587 78.2735 48.9532L59.0774 11.9542C58.9763 11.7588 58.9826 11.5241 59.0936 11.3345C59.2055 11.1449 59.4056 11.0295 59.6215 11.0295H98.0152C98.2311 11.0295 98.4315 11.1449 98.5431 11.3345C98.6544 11.5241 98.6604 11.7592 98.5593 11.9542L79.361 48.9532C79.2551 49.1587 79.0456 49.2878 78.8176 49.2878ZM60.6461 12.2888L78.8176 47.3141L96.9919 12.2888H60.6461Z" fill="#F7F0F0"/>
<path d="M72.692 25.3252C71.2118 25.3252 70.0078 24.0942 70.0078 22.5813C70.0078 21.0671 71.2118 19.8351 72.692 19.8351C74.173 19.8351 75.3772 21.0671 75.3772 22.5813C75.3776 24.0942 74.173 25.3252 72.692 25.3252ZM72.692 21.0947C71.8913 21.0947 71.2397 21.7612 71.2397 22.581C71.2397 23.3997 71.8913 24.0653 72.692 24.0653C73.4934 24.0653 74.1453 23.3997 74.1453 22.581C74.1456 21.7612 73.4934 21.0947 72.692 21.0947Z" fill="#F7F0F0"/>
<path d="M78.8105 36.9452C75.8741 36.9452 73.485 34.502 73.485 31.4989C73.485 28.4964 75.8741 26.0529 78.8105 26.0529C81.7469 26.0529 84.1361 28.4961 84.1361 31.4989C84.1361 34.502 81.7473 36.9452 78.8105 36.9452ZM78.8105 27.3126C76.5537 27.3126 74.7169 29.1906 74.7169 31.4986C74.7169 33.8065 76.5534 35.6852 78.8105 35.6852C81.0674 35.6852 82.9041 33.8068 82.9041 31.4986C82.9041 29.1903 81.0677 27.3126 78.8105 27.3126Z" fill="#F7F0F0"/>
<path d="M89.1958 17.6691C88.0507 17.6691 87.4675 16.9915 87 16.4472C86.5641 15.9403 86.2906 15.6535 85.7303 15.6535C85.1706 15.6535 84.8974 15.9403 84.4618 16.4465C83.9937 16.9912 83.4111 17.6688 82.2663 17.6688C81.1231 17.6688 80.5411 16.9912 80.074 16.4469C79.639 15.94 79.3655 15.6532 78.8065 15.6532C78.2468 15.6532 77.9733 15.94 77.538 16.4469C77.0702 16.9912 76.4879 17.6688 75.3434 17.6688C74.199 17.6688 73.6176 16.9912 73.1502 16.4465C72.7152 15.9403 72.4417 15.6535 71.8826 15.6535C71.3236 15.6535 71.0504 15.9403 70.6151 16.4465C70.1473 16.9912 69.5654 17.6688 68.4206 17.6688C67.2764 17.6688 66.6948 16.9912 66.2273 16.4465C65.7923 15.9403 65.5188 15.6535 64.9598 15.6535C64.6198 15.6535 64.3438 15.3713 64.3438 15.0237C64.3438 14.6761 64.6198 14.3939 64.9598 14.3939C66.1039 14.3939 66.6856 15.0715 67.153 15.6161C67.588 16.1224 67.8615 16.4092 68.4206 16.4092C68.9803 16.4092 69.2537 16.1224 69.6891 15.6155C70.1569 15.0712 70.7388 14.3935 71.8823 14.3935C73.0265 14.3935 73.6081 15.0712 74.0756 15.6158C74.5106 16.122 74.7841 16.4088 75.3431 16.4088C75.9028 16.4088 76.1763 16.122 76.6116 15.6151C77.0794 15.0708 77.6617 14.3932 78.8061 14.3932C79.9503 14.3932 80.5322 15.0708 80.9994 15.6155C81.4344 16.1224 81.7076 16.4085 82.266 16.4085C82.8263 16.4085 83.0998 16.1217 83.5357 15.6148C84.0029 15.0705 84.5855 14.3929 85.7296 14.3929C86.8744 14.3929 87.4567 15.0702 87.9245 15.6142C88.3604 16.1214 88.6346 16.4082 89.1955 16.4082C89.7558 16.4082 90.0293 16.1214 90.4653 15.6145C90.9331 15.0702 91.516 14.3926 92.6611 14.3926C93.001 14.3926 93.277 14.6748 93.277 15.0224C93.277 15.37 93.001 15.6522 92.6611 15.6522C92.1001 15.6522 91.8263 15.939 91.39 16.4462C90.9226 16.9918 90.3406 17.6691 89.1958 17.6691Z" fill="#F7F0F0"/>
<path d="M87.9223 25.3253C87.8361 25.3253 87.7483 25.3071 87.6657 25.2677L81.2894 22.2672C81.1406 22.1973 81.0258 22.0699 80.9692 21.9135C80.9129 21.7564 80.919 21.5834 80.9873 21.4313L81.8901 19.4273C82.032 19.1119 82.3986 18.9728 82.7071 19.1191L89.0827 22.1206C89.3918 22.2662 89.5266 22.6402 89.3848 22.9559L88.4829 24.9588C88.378 25.1897 88.1547 25.3253 87.9223 25.3253ZM82.3633 21.3864L87.6208 23.8598L88.0072 23.0011L82.7513 20.5267L82.3633 21.3864Z" fill="#F7F0F0"/>
</g>
</svg>
