<?xml version="1.0" encoding="UTF-8"?>
<svg id="_Слой_1" data-name="Слой 1" xmlns="http://www.w3.org/2000/svg" viewBox="0 0 52.5 35.76">
  <defs>
    <style>
      .cls-1 {
        fill: none;
        stroke: #fff;
        stroke-width: 2px;
        stroke-miterlimit: 10;
      }

      .cls-2 {
        fill: #fff;
        stroke-width: 0px;
      }
    </style>
  </defs>
  <g>
    <g>
      <path class="cls-1" d="M.5,13.09v16.78c0,.9.42,1.75,1.16,2.26,1.78,1.24,5.95,3.14,14.76,3.14,7.85,0,12.02-1.47,14.09-2.63,1.13-.64,1.82-1.84,1.82-3.14V13.09s1.09-5.36-15.91-5.35C.11,7.48.5,13.09.5,13.09Z"/>
      <path class="cls-1" d="M.5,13.09s0,5.17,15.91,5.17,15.91-5.17,15.91-5.17"/>
    </g>
    <ellipse class="cls-2" cx="16.42" cy="13.09" rx="6.07" ry="2.07"/>
  </g>
  <g>
    <g>
      <path class="cls-1" d="M32.33,27.9c1.14.08,2.39.13,3.75.13,7.85,0,12.02-1.47,14.09-2.63,1.13-.64,1.82-1.84,1.82-3.14V5.86s1.09-5.36-15.91-5.35c-16.3-.26-15.91,5.35-15.91,5.35v1.98"/>
      <path class="cls-1" d="M31.28,10.85c1.41.12,3,.18,4.8.18,15.91,0,15.91-5.17,15.91-5.17"/>
      <path class="cls-1" d="M20.16,5.86s0,.97,1.29,2.07"/>
    </g>
    <ellipse class="cls-2" cx="36.08" cy="5.86" rx="6.07" ry="2.07"/>
  </g>
</svg>