<svg width="30" height="36" viewBox="0 0 30 36" fill="none" xmlns="http://www.w3.org/2000/svg">
<path d="M29.784 20.7221C28.4968 10.4332 20.0348 2.03915 9.81385 0.753181C8.1219 0.414674 6.90281 1.56513 6.69982 2.91915C6.63236 3.52811 6.83476 4.13766 7.17385 4.67915L0.0663845 29.6571C-0.00108213 29.8606 0.0663843 30.1311 0.201318 30.2666C0.337424 30.4016 0.607878 30.4696 0.811451 30.4016L6.9034 28.6416C6.76833 29.3763 6.51681 30.0847 6.15833 30.7401C5.82041 31.4171 5.68489 32.1616 5.82041 32.8386C5.91951 33.5354 6.23367 34.1838 6.71903 34.6935C7.2044 35.2031 7.83676 35.5486 8.52788 35.6816C9.03351 35.7936 9.55787 35.7903 10.0621 35.6721C10.5663 35.5538 11.0374 35.3236 11.4405 34.9985C11.8436 34.6733 12.1684 34.2616 12.3907 33.7939C12.6131 33.3262 12.7273 32.8144 12.7249 32.2965C12.7249 31.823 12.6574 31.349 12.4538 30.875C11.9124 29.589 11.5739 28.438 11.4389 27.2875L13.8079 26.6105C13.6729 27.0165 13.6049 27.4225 13.4019 27.8965C13.267 28.3025 13.267 28.7765 13.3338 29.1825C13.5374 30.2654 14.4174 31.078 15.4324 31.281C17.5309 31.6869 19.1553 29.589 18.3434 27.626C18.0518 26.9083 17.8472 26.1583 17.7339 25.392L25.8568 23.0905C26.4658 23.564 27.4139 23.632 27.6168 23.564C28.9703 23.6326 30.1213 22.3466 29.7828 20.7221H29.784ZM16.9219 24.5806C16.6509 24.6481 16.4479 24.9192 16.4479 25.2577C16.5678 26.3002 16.8181 27.3235 17.1929 28.3036C17.5989 29.3186 16.7864 30.4021 15.6353 30.1986C15.0939 30.1311 14.6204 29.6571 14.4849 29.1156C14.4168 28.8451 14.4849 28.6421 14.5524 28.4386C14.8234 27.4911 15.0264 26.7466 15.2294 26.0021C15.2974 25.7986 15.2294 25.5956 15.0264 25.3926C14.8914 25.2577 14.6204 25.1896 14.4174 25.2577L10.5589 26.3406C10.4252 26.3782 10.3071 26.4576 10.2218 26.5672C10.1365 26.6768 10.0885 26.8108 10.0849 26.9496C10.1529 28.3711 10.4909 29.8606 11.2359 31.4845C11.3709 31.7556 11.4389 32.0941 11.4389 32.3645C11.4389 33.7186 10.1529 34.8696 8.73086 34.5311C7.85086 34.3281 7.17385 33.583 7.03892 32.703C6.97086 32.2296 7.03892 31.7556 7.2419 31.3496C7.7834 30.266 8.1219 29.1156 8.25684 27.8296C8.25684 27.626 8.18937 27.423 8.05385 27.2875C7.91892 27.1526 7.64788 27.0845 7.51236 27.1526L1.55534 28.8445L8.18937 5.35558C8.39236 5.42363 8.52788 5.49051 8.86638 5.55857C17.1249 6.50662 23.8264 13.2075 24.7744 21.4666C24.7744 21.6696 24.8419 21.9406 24.9774 22.1436L16.9219 24.5806ZM27.4819 22.5496C26.8724 22.6177 26.3309 22.2792 26.1279 21.6021C26.1279 21.5347 26.1279 21.4672 26.0598 21.3992C25.1124 12.5992 17.9368 5.42305 9.06996 4.40811C9.0019 4.40811 8.93502 4.40811 8.86697 4.34065C8.25742 4.13707 7.91892 3.59558 7.98697 2.98662C8.05444 2.37707 8.59593 1.76811 9.61145 1.90363C19.2915 3.18961 27.2795 11.1096 28.4974 20.8577C28.7679 21.9406 28.0909 22.4821 27.4819 22.5496Z" fill="white"/>
<path d="M19.4264 16.1191C17.6664 16.1191 16.2449 17.5406 16.2449 19.3006C16.2449 21.0606 17.6664 22.4821 19.4264 22.4821C21.1864 22.4821 22.6085 21.0606 22.6085 19.3006C22.6085 17.5406 21.2539 16.1191 19.4264 16.1191ZM19.4264 21.3311C18.9059 21.3306 18.4069 21.1237 18.0389 20.7556C17.6708 20.3876 17.4639 19.8886 17.4634 19.3681C17.4634 18.2851 18.3434 17.4051 19.4264 17.4051C20.5094 17.4051 21.3894 18.2851 21.3894 19.3681C21.3894 20.4511 20.5094 21.3311 19.4264 21.3311ZM6.49686 21.6702C5.34582 21.6702 4.46582 22.6177 4.46582 23.7006C4.46582 24.7836 5.41329 25.7317 6.49686 25.7317C7.57985 25.7317 8.52731 24.7836 8.52731 23.7006C8.52731 22.6177 7.64731 21.6702 6.49686 21.6702ZM6.49686 24.5132C6.0903 24.5132 5.68433 24.1747 5.68433 23.7006C5.68433 23.2272 6.02283 22.8887 6.49686 22.8887C6.90283 22.8887 7.30881 23.2272 7.30881 23.7006C7.30881 24.1747 6.9703 24.5132 6.49686 24.5132ZM9.27297 11.5836C7.98641 11.5836 6.90342 12.6666 6.90342 13.9526C6.90342 15.2386 7.98641 16.3215 9.27238 16.3215C10.5589 16.3215 11.6419 15.2386 11.6419 13.9526C11.6419 12.6666 10.5589 11.5836 9.27297 11.5836ZM9.27297 15.0356C9.13022 15.0375 8.98855 15.0107 8.8563 14.957C8.72405 14.9032 8.60391 14.8235 8.50296 14.7226C8.40202 14.6216 8.32232 14.5015 8.26856 14.3693C8.21481 14.237 8.18809 14.0953 8.18998 13.9526C8.18998 13.3436 8.66342 12.8696 9.27297 12.8696C9.88193 12.8696 10.356 13.3436 10.356 13.9526C10.3578 14.0953 10.331 14.2369 10.2772 14.3692C10.2234 14.5014 10.1437 14.6215 10.0428 14.7224C9.94186 14.8233 9.82175 14.903 9.68954 14.9568C9.55733 15.0106 9.41569 15.0374 9.27297 15.0356ZM9.61089 10.3651C9.94939 10.3651 10.2198 10.0941 10.2198 9.75616C10.2208 9.39733 10.3637 9.05347 10.6175 8.79974C10.8712 8.54601 11.215 8.40306 11.5739 8.40213C11.9124 8.40213 12.1834 8.13109 12.1834 7.79317C12.1834 7.45466 11.9124 7.18362 11.5739 7.18362C10.1524 7.18362 8.93387 8.33466 8.93387 9.82362C9.00193 10.0941 9.27238 10.3651 9.61089 10.3651ZM14.9589 11.3801L16.1769 10.7711C16.5154 10.6362 16.5828 10.2296 16.4479 9.95914C16.313 9.62064 15.9058 9.55258 15.6354 9.6881L14.4174 10.2971C14.0789 10.432 14.0109 10.8391 14.1464 11.1096C14.2813 11.4481 14.621 11.5836 14.9589 11.3801ZM8.5279 18.4881L7.30939 19.0971C6.97147 19.2326 6.90342 19.6391 7.03894 19.9096C7.17387 20.2481 7.58043 20.3156 7.85089 20.1806L9.06939 19.5711C9.4079 19.4362 9.47537 19.0296 9.34043 18.7591C9.20491 18.4881 8.79894 18.3532 8.5279 18.4881ZM12.8604 20.9251C12.6574 20.6541 12.2515 20.6541 11.9804 20.8576C11.71 21.0606 11.71 21.4666 11.913 21.7376L12.793 22.8206C12.996 23.0911 13.4019 23.0911 13.673 22.8881C13.944 22.6851 13.944 22.2791 13.7404 22.0081L12.8604 20.9251ZM16.5154 16.4571C16.6503 16.1191 16.4479 15.7801 16.1774 15.6451L14.8909 15.1711C14.553 15.0362 14.2139 15.2391 14.0789 15.5096C13.944 15.8481 14.1464 16.1866 14.4174 16.3215L15.7034 16.7956C16.0419 16.9311 16.3804 16.7956 16.5154 16.4571Z" fill="white"/>
</svg>
