<svg width="36" height="36" viewBox="0 0 36 36" fill="none" xmlns="http://www.w3.org/2000/svg">
<path d="M28.7964 10.2513C28.9335 10.3011 29.0848 10.2945 29.217 10.2331C29.3493 10.1716 29.4518 10.0602 29.5022 9.92335L32.5312 1.63962L33.5649 2.01743L30.4092 10.645C30.359 10.782 30.3653 10.9334 30.4268 11.0658C30.4882 11.1982 30.5998 11.3008 30.7368 11.351C30.8739 11.4012 31.0253 11.3949 31.1577 11.3334C31.2901 11.272 31.3927 11.1604 31.4429 11.0234L34.7869 1.87839C34.8117 1.81052 34.8228 1.73843 34.8197 1.66625C34.8166 1.59406 34.7993 1.52319 34.7688 1.4577C34.7383 1.3922 34.6952 1.33337 34.6419 1.28455C34.5886 1.23574 34.5263 1.19791 34.4584 1.17322L32.3927 0.417594C32.3248 0.392602 32.2527 0.381247 32.1804 0.38418C32.1082 0.387114 32.0372 0.404277 31.9716 0.434688C31.906 0.465098 31.847 0.508158 31.7981 0.561399C31.7491 0.61464 31.7111 0.677017 31.6864 0.744954L28.4685 9.54495C28.4437 9.61279 28.4325 9.68484 28.4356 9.757C28.4386 9.82916 28.4559 9.90001 28.4863 9.9655C28.5168 10.031 28.5599 10.0898 28.6131 10.1387C28.6663 10.1875 28.7286 10.2254 28.7964 10.2501V10.2513ZM25.7364 8.07066C25.8784 8.10352 26.0276 8.07866 26.1512 8.00154C26.2749 7.92442 26.3628 7.80136 26.3958 7.65941L27.8038 1.59503L28.875 1.84319L27.328 8.51066C27.3014 8.65047 27.3299 8.79517 27.4075 8.91443C27.4852 9.0337 27.606 9.11827 27.7447 9.15043C27.8833 9.18259 28.029 9.15984 28.1513 9.08694C28.2735 9.01405 28.3628 8.89667 28.4004 8.75941L30.0713 1.55573C30.0878 1.4853 30.0902 1.4123 30.0783 1.34094C30.0665 1.26958 30.0407 1.20126 30.0024 1.13992C29.964 1.07857 29.9139 1.02542 29.855 0.983511C29.796 0.941602 29.7294 0.911769 29.6588 0.895728L27.5157 0.398234C27.3737 0.366024 27.2246 0.391224 27.101 0.46835C26.9774 0.545477 26.8893 0.668291 26.8557 0.810074L25.3245 7.41007C25.3082 7.48045 25.3059 7.55337 25.3177 7.62464C25.3296 7.69592 25.3554 7.76415 25.3936 7.82545C25.4319 7.88675 25.4818 7.93991 25.5407 7.98188C25.5995 8.02386 25.666 8.05383 25.7364 8.07007V8.07066ZM24.5848 11.935C25.0582 11.935 25.5093 12.1386 25.8226 12.4941C25.8703 12.5484 25.9283 12.5927 25.9932 12.6245C26.058 12.6563 26.1286 12.675 26.2007 12.6795C26.2728 12.684 26.3451 12.6741 26.4134 12.6506C26.4818 12.627 26.5447 12.5902 26.5988 12.5422C26.7081 12.4457 26.7746 12.3098 26.7837 12.1642C26.7928 12.0187 26.7438 11.8755 26.6475 11.7661C26.3894 11.4735 26.0721 11.2392 25.7166 11.0787C25.361 10.9182 24.9754 10.8351 24.5853 10.835C24.4395 10.835 24.2996 10.893 24.1964 10.9961C24.0933 11.0993 24.0353 11.2392 24.0353 11.385C24.0353 11.5309 24.0933 11.6708 24.1964 11.7739C24.2996 11.8771 24.4389 11.935 24.5848 11.935ZM25.0664 9.76495C25.746 9.85034 26.3905 10.1156 26.9334 10.5332C27.4763 10.9509 27.8979 11.5059 28.1546 12.141C28.1817 12.2079 28.2217 12.2689 28.2723 12.3204C28.323 12.3718 28.3833 12.4129 28.4498 12.441C28.5162 12.4692 28.5876 12.4841 28.6599 12.4847C28.7321 12.4853 28.8037 12.4716 28.8706 12.4446C28.9376 12.4175 28.9986 12.3775 29.05 12.3268C29.1015 12.2762 29.1425 12.2159 29.1707 12.1494C29.1989 12.0829 29.2138 12.0115 29.2144 11.9393C29.215 11.8671 29.2013 11.7955 29.1742 11.7285C28.8439 10.912 28.3016 10.1985 27.6034 9.66152C26.9052 9.12453 26.0764 8.78355 25.2025 8.67375C25.1308 8.66432 25.058 8.6692 24.9882 8.68813C24.9184 8.70706 24.8531 8.73965 24.796 8.78402C24.739 8.82839 24.6912 8.88365 24.6557 8.9466C24.6201 9.00954 24.5974 9.07892 24.5889 9.15071C24.5513 9.45226 24.7654 9.72741 25.0664 9.76495Z" fill="white"/>
<path d="M31.6623 11.969C31.5945 11.9443 31.5225 11.9331 31.4504 11.9363C31.3783 11.9394 31.3075 11.9567 31.2421 11.9872C31.1767 12.0177 31.118 12.0609 31.0693 12.1141C31.0206 12.1674 30.9829 12.2297 30.9583 12.2976L29.4465 16.4512C28.929 15.668 28.6627 14.734 28.5366 14.1362H29.5356C29.6815 14.1362 29.8214 14.0782 29.9246 13.9751C30.0277 13.872 30.0856 13.7321 30.0856 13.5862C30.0856 13.4403 30.0277 13.3004 29.9246 13.1973C29.8214 13.0941 29.6815 13.0362 29.5356 13.0362H25.1356C24.9898 13.0362 24.8499 13.0941 24.7467 13.1973C24.6436 13.3004 24.5856 13.4403 24.5856 13.5862C24.5856 13.7321 24.6436 13.872 24.7467 13.9751C24.8499 14.0782 24.9898 14.1362 25.1356 14.1362H27.4131C27.5615 14.937 27.9739 16.5339 29.003 17.6679L28.8874 17.9859H27.2125C27.1057 17.6104 26.932 17.2942 26.6845 17.0472C26.2145 16.5767 25.8303 15.9079 25.5463 15.0608L24.5032 15.4116C24.8423 16.4207 25.3146 17.2332 25.9071 17.8252C25.9541 17.8715 25.9939 17.9266 26.0303 17.9865H24.9239L23.1533 13.1218C23.0658 12.8883 22.9263 12.6777 22.7456 12.5058C23.5742 11.5987 24.0339 10.4146 24.0345 9.1859V8.0859C24.0345 8.01371 24.0203 7.94223 23.9926 7.87554C23.965 7.80884 23.9245 7.74824 23.8735 7.6972C23.8224 7.64615 23.7618 7.60566 23.6951 7.57804C23.6284 7.55041 23.557 7.53619 23.4848 7.53619H22.3848C20.4687 7.53619 18.8073 8.63209 17.9848 10.229C17.1623 8.63326 15.5008 7.53619 13.5848 7.53619H12.4848C12.4125 7.53612 12.341 7.55028 12.2742 7.57787C12.2075 7.60546 12.1468 7.64594 12.0957 7.69699C12.0446 7.74805 12.004 7.80867 11.9764 7.8754C11.9487 7.94213 11.9345 8.01366 11.9345 8.0859V9.1859C11.9345 11.5607 13.6165 13.5495 15.8522 14.0259C15.4474 14.179 15.123 14.4776 14.9394 14.8707C14.8474 15.0669 14.7952 15.2794 14.7858 15.4959C14.7764 15.7124 14.8101 15.9286 14.8848 16.132L15.5595 17.9859H15.0503C14.9435 17.6104 14.7698 17.2936 14.5229 17.0472C13.6728 16.1966 13.2885 14.8742 13.1307 14.1168C13.2567 14.0959 13.3712 14.0311 13.4542 13.934C13.5371 13.8369 13.5832 13.7136 13.5842 13.5859C13.5843 13.5136 13.5701 13.442 13.5425 13.3752C13.5148 13.3084 13.4743 13.2477 13.4232 13.1966C13.3721 13.1455 13.3114 13.105 13.2446 13.0773C13.1778 13.0497 13.1062 13.0355 13.0339 13.0356H11.366L11.6763 11.2756C11.689 11.2045 11.6875 11.1315 11.672 11.0609C11.6564 10.9903 11.6271 10.9235 11.5857 10.8643C11.5442 10.8051 11.4916 10.7546 11.4306 10.7157C11.3697 10.6769 11.3017 10.6504 11.2305 10.6379C8.95656 10.236 6.75832 11.1882 5.45064 12.9083L5.01064 11.7015C4.98601 11.6337 4.94826 11.5714 4.89954 11.5182C4.85082 11.465 4.7921 11.4219 4.72672 11.3914C4.66134 11.3609 4.59059 11.3435 4.51851 11.3404C4.44643 11.3372 4.37443 11.3483 4.30664 11.373C1.49416 12.3967 -0.0740012 15.3318 0.516772 18.1807C0.467226 18.2387 0.430272 18.3063 0.408256 18.3793C0.386239 18.4523 0.379641 18.5291 0.388879 18.6048C0.438745 18.9926 1.67192 28.0244 8.63507 32.0512V33.935C8.63553 34.3726 8.80955 34.7921 9.11894 35.1014C9.42833 35.4108 9.84782 35.5848 10.2854 35.5853H25.6854C26.1229 35.5848 26.5424 35.4108 26.8518 35.1014C27.1612 34.7921 27.3352 34.3726 27.3356 33.935V32.0506C34.2982 28.0249 35.5314 18.9926 35.5818 18.6048C35.5913 18.5075 35.5743 18.4094 35.5326 18.3209C35.7078 16.9796 35.4197 15.6187 34.716 14.4635C34.0123 13.3083 32.9351 12.428 31.6629 11.9685L31.6623 11.969ZM31.7931 13.2192C32.667 13.6521 33.3898 14.3387 33.8668 15.1892C34.3438 16.0398 34.5529 17.0146 34.4666 17.9859H30.0578L31.7931 13.2192ZM23.754 17.9859H23.0923C22.8207 17.0572 22.3683 16.4394 21.743 16.1479C20.7761 15.6973 20.0293 14.7733 19.587 14.1104C20.4257 14.0246 21.2284 13.7246 21.9178 13.2392C22.0081 13.3031 22.0821 13.39 22.1208 13.4973L23.754 17.9853V17.9859ZM19.5371 17.9859C19.3048 17.6544 19.0249 17.4074 18.6993 17.2561C17.6175 16.7516 16.8103 15.6545 16.399 14.9951L18.3872 14.2711C18.819 15.0056 19.8187 16.4647 21.2777 17.1446C21.5805 17.2854 21.7887 17.6186 21.9324 17.9859H19.5371ZM22.3854 8.63561H22.9351V9.1859C22.9338 10.2065 22.5278 11.185 21.8061 11.9067C21.0844 12.6284 20.106 13.0344 19.0854 13.0356H18.5351V12.4859C18.5362 11.4651 18.9422 10.4864 19.664 9.76453C20.3858 9.0427 21.3645 8.63669 22.3854 8.63561ZM13.0351 9.1859V8.63561H13.5854C14.6061 8.63685 15.5846 9.04292 16.3063 9.76474C17.0281 10.4866 17.434 11.4652 17.4351 12.4859V13.0356H16.8854C15.8646 13.0345 14.886 12.6286 14.1642 11.9069C13.4424 11.1852 13.0363 10.2066 13.0351 9.1859ZM16.2441 16.6501C16.6483 17.1282 17.1535 17.6145 17.7507 17.9859H16.7305L16.2441 16.6501ZM13.8699 17.9859H11.813C11.7063 17.6104 11.5332 17.2936 11.2856 17.0472C10.442 16.2036 10.0583 14.8965 9.89757 14.1362H12.0137C12.168 14.974 12.6086 16.6864 13.7467 17.8252C13.793 17.8709 13.8335 17.9261 13.8699 17.9859ZM9.18536 15.6375C9.45757 16.3784 9.87352 17.1904 10.5077 17.8246C10.5535 17.8709 10.5939 17.9261 10.6303 17.9859H9.18477L9.18536 15.6375ZM10.4936 11.6564L10.2507 13.0362H9.73507C9.29783 13.0368 8.87867 13.2107 8.56944 13.5199C8.26021 13.829 8.08613 14.2481 8.08536 14.6853V17.9853H5.57795C5.33364 17.2365 5.27604 16.4394 5.41016 15.6633C5.61818 14.488 6.25112 13.4302 7.18851 12.6913C8.12589 11.9525 9.30224 11.5841 10.4936 11.6564ZM4.17816 12.6244L4.73139 14.1438C4.54488 14.5696 4.40901 15.0158 4.32659 15.4732C4.17933 16.3081 4.21234 17.1648 4.42339 17.9859H1.59683C1.13747 15.8311 2.19581 13.61 4.17699 12.6238L4.17816 12.6244ZM25.6854 34.4853H10.2842C10.1384 34.485 9.99866 34.4269 9.89562 34.3238C9.79258 34.2206 9.73463 34.0808 9.73448 33.935V32.2853H26.2351V33.935C26.2351 34.2383 25.9887 34.4853 25.6854 34.4853ZM26.6434 31.1853H9.32675C3.73229 28.049 1.99693 21.1832 1.58744 19.0853H34.3833C33.9761 21.1815 32.2461 28.0437 26.6434 31.1853Z" fill="white"/>
<path d="M4.39048 21.1129C4.33006 20.9287 4.27315 20.7503 4.22152 20.5772C4.17967 20.4374 4.08399 20.32 3.95554 20.2507C3.82709 20.1815 3.67639 20.1661 3.53659 20.2079C3.39679 20.2498 3.27934 20.3455 3.21008 20.4739C3.14082 20.6024 3.12543 20.7531 3.16728 20.8929C3.22243 21.0747 3.28051 21.2631 3.34446 21.4572C3.3944 21.5905 3.49397 21.6992 3.6223 21.7607C3.75063 21.8222 3.89778 21.8316 4.03291 21.787C4.16804 21.7424 4.28067 21.6473 4.34722 21.5215C4.41376 21.3957 4.42906 21.2491 4.3899 21.1123L4.39048 21.1129ZM4.99299 22.7203C4.93236 22.5915 4.82417 22.4912 4.69115 22.4405C4.55813 22.3898 4.41064 22.3926 4.27965 22.4484C4.14865 22.5041 4.04436 22.6084 3.98867 22.7394C3.93298 22.8705 3.93023 23.0179 3.98099 23.1509C4.81464 25.1139 5.87592 26.7765 7.13608 28.0936C7.18597 28.1458 7.24564 28.1877 7.31171 28.2168C7.37777 28.2459 7.44892 28.2618 7.5211 28.2634C7.59329 28.265 7.66508 28.2524 7.7324 28.2263C7.79971 28.2002 7.86122 28.1611 7.91342 28.1112C7.96561 28.0613 8.00747 28.0017 8.0366 27.9356C8.06574 27.8695 8.08157 27.7984 8.08321 27.7262C8.08484 27.654 8.07224 27.5822 8.04613 27.5149C8.02002 27.4476 7.9809 27.3861 7.93102 27.3339C6.76355 26.1136 5.77443 24.5613 4.9924 22.7209L4.99299 22.7203Z" fill="white"/>
</svg>
