<svg width="18" height="22" viewBox="0 0 18 22" fill="none" xmlns="http://www.w3.org/2000/svg">
<g clip-path="url(#clip0_1_1082)">
<g clip-path="url(#clip1_1_1082)">
<g clip-path="url(#clip2_1_1082)">
<path d="M15.5 20.5C15.5 21.0523 15.9477 21.5 16.5 21.5C17.0523 21.5 17.5 21.0523 17.5 20.5H15.5ZM0.5 20.5C0.5 21.0523 0.947715 21.5 1.5 21.5C2.05228 21.5 2.5 21.0523 2.5 20.5H0.5ZM17.5 20.5C17.5 15.8529 13.6803 12.1111 9 12.1111V14.1111C12.604 14.1111 15.5 16.9855 15.5 20.5H17.5ZM9 12.1111C4.3197 12.1111 0.5 15.8529 0.5 20.5H2.5C2.5 16.9855 5.39602 14.1111 9 14.1111V12.1111ZM9 8.94444C7.17123 8.94444 5.71429 7.48779 5.71429 5.72222H3.71429C3.71429 8.6204 6.0949 10.9444 9 10.9444V8.94444ZM5.71429 5.72222C5.71429 3.95666 7.17123 2.5 9 2.5V0.5C6.0949 0.5 3.71429 2.82405 3.71429 5.72222H5.71429ZM9 2.5C10.8288 2.5 12.2857 3.95666 12.2857 5.72222H14.2857C14.2857 2.82405 11.9051 0.5 9 0.5V2.5ZM12.2857 5.72222C12.2857 7.48779 10.8288 8.94444 9 8.94444V10.9444C11.9051 10.9444 14.2857 8.6204 14.2857 5.72222H12.2857Z" fill="white"/>
</g>
</g>
</g>
<defs>
<clipPath id="clip0_1_1082">
<rect width="17" height="21" fill="white" transform="translate(0.5 0.5)"/>
</clipPath>
<clipPath id="clip1_1_1082">
<rect width="17" height="21" fill="white" transform="translate(0.5 0.5)"/>
</clipPath>
<clipPath id="clip2_1_1082">
<rect width="17" height="21" fill="white" transform="translate(0.5 0.5)"/>
</clipPath>
</defs>
</svg>
