<svg width="32" height="28" viewBox="0 0 32 28" fill="none" xmlns="http://www.w3.org/2000/svg">
<path fill-rule="evenodd" clip-rule="evenodd" d="M22.2433 9.69152C20.4938 9.69152 19.0712 8.65899 19.0712 7.38885C19.0712 6.11813 20.4938 5.08501 22.2433 5.08501C23.9915 5.08501 25.4148 6.11813 25.4148 7.38885C25.4148 8.6584 23.9921 9.69152 22.2433 9.69152ZM22.2433 3.56555C24.8399 3.56555 26.9519 5.28037 26.9519 7.38827C26.9519 9.49616 24.8399 11.211 22.2433 11.211C19.6467 11.211 17.5341 9.49616 17.5341 7.38827C17.5341 5.28037 19.6467 3.56496 22.2433 3.56496V3.56555ZM14.8554 14.0223C14.9713 14.0961 15.0668 14.198 15.1329 14.3185C15.199 14.439 15.2337 14.5742 15.2337 14.7116C15.2337 14.8491 15.199 14.9843 15.1329 15.1048C15.0668 15.2253 14.9713 15.3271 14.8554 15.401L10.1063 18.4534C9.97114 18.5406 9.81369 18.587 9.65283 18.587C9.49196 18.587 9.33451 18.5406 9.19934 18.4534L4.45027 15.401C4.33447 15.327 4.23916 15.2251 4.17313 15.1047C4.10711 14.9842 4.0725 14.849 4.0725 14.7116C4.0725 14.5742 4.10711 14.4391 4.17313 14.3186C4.23916 14.1981 4.33447 14.0962 4.45027 14.0223L9.19934 10.9693C9.33472 10.8826 9.49209 10.8366 9.65283 10.8366C9.81356 10.8366 9.97094 10.8826 10.1063 10.9693L14.8554 14.0223ZM12.8766 14.7116L9.65224 12.6389L6.42909 14.711L9.65224 16.7831L12.8754 14.711L12.8766 14.7116ZM29.8834 13.3095C29.8834 14.9017 29.0169 16.4441 27.5057 17.5405C27.3707 17.6391 27.2282 17.733 27.0803 17.8233C27.7239 16.2675 27.6829 14.6641 27.5919 13.8023C28.0095 13.5675 28.4079 13.3001 28.7834 13.0027C29.1906 12.6806 29.5578 12.3303 29.8829 11.9566L29.8834 13.3095ZM24.5119 18.877L24.4521 18.891C23.7704 19.0447 23.0617 19.1228 22.3471 19.1228L22.245 19.1216C23.0341 17.6326 23.1972 16.0381 23.2136 15.0947C24.1987 15.0229 25.1695 14.8176 26.0994 14.4846C26.1434 15.6526 25.961 17.5875 24.5119 18.877ZM20.5566 18.955C19.9814 18.8471 19.418 18.6832 18.8746 18.4657V14.7615C18.8746 14.7005 18.8741 14.6395 18.8717 14.5779C19.7687 14.8741 20.708 15.0519 21.6736 15.1082C21.6525 16.0134 21.4724 17.6367 20.5566 18.955ZM2.09421 18.9632L2.11651 18.9884V18.9855C2.22328 19.1087 2.33475 19.2295 2.44973 19.3469C4.18333 21.0957 6.82744 22.147 9.63053 22.147C12.6331 22.147 15.4538 20.9414 17.1674 18.9632V19.0101L17.1897 18.9855V20.3513C17.1897 21.9435 16.3232 23.4858 14.812 24.5823C14.3156 24.9374 13.7767 25.229 13.208 25.4506L12.8613 25.5878C12.487 25.7363 12.1162 25.8518 11.7584 25.9322C11.0767 26.0865 10.368 26.1639 9.65341 26.1639C6.88552 26.1639 4.46141 25.007 3.15139 23.2875H3.1508C3.11031 23.2341 3.07061 23.1802 3.03171 23.1256L3.02232 23.1127C2.42099 22.2644 2.09421 21.3063 2.09421 20.3295V18.9632ZM4.23848 10.6437C5.67523 9.50437 7.59011 8.87723 9.63053 8.87723C11.671 8.87723 13.5858 9.50437 15.022 10.6431C15.2391 10.815 15.4403 10.9951 15.6263 11.1822C16.6394 12.196 17.1897 13.4262 17.1897 14.7116C17.1897 16.2252 16.4277 17.662 15.0449 18.7585C13.6087 19.8972 11.6938 20.5243 9.65341 20.5243C7.6124 20.5243 5.69752 19.8972 4.26136 18.7585C4.04429 18.5866 3.84365 18.4065 3.65768 18.2193C2.64451 17.2061 2.09421 15.9753 2.09421 14.6899C2.09421 13.1763 2.85629 11.7407 4.23848 10.6437ZM14.3679 8.29995C13.973 8.10614 13.566 7.93819 13.1494 7.79717C13.148 7.75495 13.1472 7.7127 13.147 7.67045C13.147 5.64352 14.1279 3.74976 15.909 2.33765C17.6368 0.9672 19.923 0.213333 22.3465 0.213333C24.7706 0.213333 27.0563 0.967787 28.7846 2.33707C30.5657 3.75035 31.5466 5.64352 31.5466 7.66987V13.3101C31.5466 15.3364 30.5657 17.2308 28.784 18.6429C27.0569 20.0127 24.7706 20.7666 22.3465 20.7666C21.1638 20.7666 19.9705 20.5777 18.8746 20.2181L18.8306 20.204V20.3295C18.8306 22.3559 17.8497 24.2502 16.068 25.6623C14.3409 27.0328 12.0552 27.7867 9.63112 27.7867C7.2076 27.7867 4.92136 27.0322 3.19363 25.6629C2.97128 25.4863 2.76125 25.3021 2.56413 25.1115C1.19661 23.7786 0.453308 22.1154 0.453308 20.3518V14.7122C0.453308 10.6003 4.58051 7.25509 9.65283 7.25509C10.8573 7.25509 12.0247 7.44048 13.1282 7.80656V7.79307C13.5583 7.93739 13.973 8.10693 14.3679 8.29995ZM14.9047 8.58389C15.0309 8.65559 15.1555 8.73012 15.2784 8.80741C15.3013 8.82149 15.323 8.83675 15.3458 8.85024C16.8371 9.81179 17.9542 11.1394 18.4857 12.6647C19.6344 13.1822 21.013 13.4831 22.3465 13.4831C26.5025 13.4831 29.8834 10.8754 29.8834 7.67045C29.8834 4.46549 26.5025 1.85776 22.3465 1.85776C18.1912 1.85776 14.8102 4.46549 14.8102 7.67045C14.8102 7.97611 14.8431 8.28293 14.9047 8.58389Z" fill="white"/>
</svg>
