<svg width="30" height="31" viewBox="0 0 30 31" fill="none" xmlns="http://www.w3.org/2000/svg">
<path fill-rule="evenodd" clip-rule="evenodd" d="M5.13815 7.54379C5.15575 8.09584 5.17511 8.65083 5.19271 9.21051C5.10312 9.20982 5.01355 9.20786 4.92402 9.20464C4.67175 9.1976 4.36844 9.1888 4.071 9.21872C2.05111 9.41056 0.437776 10.8285 0.179643 12.6138C-0.111344 14.6284 0.0505764 16.6758 0.685936 18.6154C2.03996 22.7437 4.63127 25.8759 8.53847 27.8401C9.02951 28.0865 9.35452 28.3728 9.13687 28.8404C9.02658 29.0792 8.51559 29.244 8.18295 29.2505C6.98146 29.2727 5.77879 29.2722 4.57612 29.271C3.80466 29.271 3.0326 29.2704 2.26231 29.2757L2.13735 29.2751C1.78242 29.2692 1.38231 29.2634 1.37058 29.8025C1.35884 30.3628 1.73138 30.3651 2.09394 30.3675C2.1614 30.3675 2.22887 30.3681 2.29282 30.3722C2.34855 30.3769 2.40428 30.3757 2.4606 30.3745L2.53276 30.3739C10.854 30.3722 19.1759 30.3722 27.4972 30.3722C27.5547 30.3722 27.6157 30.3769 27.6761 30.3827C27.8134 30.3945 27.9501 30.4068 28.0498 30.3516C28.2159 30.2595 28.3578 30.1228 28.4992 29.9873C28.5596 29.9286 28.6201 29.8711 28.6817 29.8172C28.6166 29.7616 28.553 29.7043 28.491 29.6453C28.3461 29.5103 28.2018 29.376 28.0322 29.2933C27.9079 29.2346 27.7483 29.2463 27.5905 29.2581C27.5259 29.2628 27.4614 29.2681 27.3998 29.2681C26.9094 29.2675 26.4189 29.2681 25.9284 29.2692C24.4981 29.2716 23.0684 29.2739 21.6393 29.2458C21.3765 29.2405 20.9048 28.9466 20.9077 28.794C20.9136 28.4948 21.1107 28.0595 21.3607 27.9263C26.961 24.9543 29.8644 20.3542 29.9594 13.9789C29.9911 11.8259 29.1522 10.3134 27.1405 9.50032C26.7609 9.34662 26.7005 9.16592 26.8425 8.76699L26.9475 8.4807C27.1851 7.83243 27.4291 7.16832 27.4655 6.5007C27.5224 5.43883 27.5142 4.3752 27.5066 3.3104C27.5007 2.64043 27.496 1.97046 27.5066 1.30048C27.5166 0.700324 27.2637 0.48267 26.7052 0.487364C25.6903 0.495577 24.6771 0.501444 23.6639 0.483844C21.8664 0.452164 20.1011 0.530777 18.4701 1.44304C18.2537 1.56272 17.8295 1.49878 17.5913 1.36267C15.3233 0.0661372 13.1461 0.141231 11.0189 1.68123C10.8048 1.8367 10.4944 1.93936 10.2287 1.9376C9.4965 1.93408 8.76434 1.91414 8.03218 1.89419C7.37922 1.87659 6.72567 1.85899 6.0733 1.85312C5.20268 1.84491 4.98034 2.06726 4.9997 2.94902C5.0349 4.47142 5.08594 5.99382 5.13756 7.54379H5.13815ZM22.3333 13.4703L22.297 13.3899C22.4067 13.3137 22.5176 13.2392 22.6279 13.1652C22.9616 12.9475 23.2837 12.7125 23.5929 12.4612C24.162 12.0118 24.7311 11.5613 25.2596 11.0673C26.0164 10.3569 26.4412 10.2765 27.3083 10.8561C28.1941 11.4486 28.7427 12.2676 28.8002 13.3447C29.0818 18.5884 26.4617 23.666 21.7097 26.401C21.3413 26.6122 20.8596 26.699 20.4273 26.7119C19.5033 26.7383 18.5787 26.7354 17.6541 26.7319C17.1918 26.7301 16.7295 26.729 16.2678 26.7307H16.2039C15.8477 26.7307 15.4699 26.7301 15.4576 27.2529C15.4447 27.7955 15.7891 27.9023 16.2514 27.8947C16.7055 27.887 17.1595 27.8888 17.6136 27.8906C18.1199 27.8923 18.6262 27.8941 19.1331 27.8835C19.5696 27.8736 19.7679 28.0161 19.7585 28.4755C19.7503 28.9272 19.6881 29.2692 19.1214 29.2675C16.4004 29.2616 13.6812 29.2598 10.9596 29.2692C10.4176 29.2727 10.2234 28.9847 10.2991 28.5136C10.4475 27.5867 9.99986 27.1936 9.18967 26.8111C5.24727 24.9432 2.8302 21.7687 1.6381 17.6251C1.52076 17.2185 1.4621 16.7961 1.40402 16.3731C1.37116 16.1361 1.33831 15.8985 1.29548 15.6644C1.17052 14.9839 1.38935 14.7082 2.1309 14.7258C3.49783 14.758 4.86476 14.7522 6.23287 14.7457C6.7861 14.7434 7.33874 14.7404 7.89138 14.7404L11.6683 14.741C16.7043 14.7416 21.7391 14.7428 26.775 14.731C26.8571 14.731 26.9481 14.7387 27.0419 14.7469C27.462 14.7821 27.9413 14.8232 27.9571 14.1954C27.973 13.5125 27.462 13.5325 26.9985 13.5507C26.9176 13.5536 26.8378 13.5565 26.7627 13.5565C25.7049 13.5471 24.6472 13.5483 23.5894 13.5507L22.3691 13.5513L22.3556 13.5219L22.3333 13.4703ZM11.1087 13.5407H11.1081C10.3477 13.546 9.58567 13.5513 8.82124 13.5513C8.63938 12.3316 8.23458 11.3647 7.50887 10.5024C6.60951 9.43168 6.2669 8.11872 6.22231 6.73947C6.20697 6.16624 6.20267 5.59276 6.2094 5.01936C6.21175 4.57936 6.21351 4.13936 6.20588 3.69936C6.1965 3.16022 6.403 2.93787 6.96503 2.96192C7.3493 2.97835 7.73591 2.97424 8.12252 2.97014C9.22663 2.9584 10.3301 2.94667 11.3791 3.41776C11.6167 3.52395 11.8437 3.65595 12.0708 3.78736C12.3465 3.94694 12.6211 4.10651 12.9144 4.21974C13.2371 4.3447 13.8138 4.43915 13.9581 4.27254C14.2268 3.96219 14.0684 3.55563 13.6237 3.31216C13.3069 3.13968 13.0112 2.92614 12.7138 2.71142C12.5818 2.61511 12.4486 2.52046 12.3143 2.42747C13.4313 1.22187 15.8577 1.46064 16.8116 2.34534C16.6063 2.62752 16.3951 2.9056 16.1839 3.1831C15.7146 3.7991 15.2458 4.41451 14.8463 5.07158C13.8537 6.69899 13.7469 8.5335 13.8701 10.3792C13.8795 10.5358 14.0437 10.683 14.2074 10.8303C14.2831 10.8984 14.3588 10.9664 14.4186 11.0356C14.4808 10.9564 14.5559 10.8796 14.631 10.8021C14.7953 10.6338 14.9595 10.4648 14.9836 10.2782C15.0317 9.90395 15.0364 9.52144 15.0405 9.14011C15.0469 8.61211 15.0534 8.08587 15.1743 7.58427C16.0384 3.99094 18.7529 1.77744 22.4266 1.59675C23.5167 1.54219 24.6131 1.55803 25.7049 1.59792C25.9191 1.60614 26.3051 1.87014 26.3033 2.01446C26.3004 2.41632 26.3045 2.82054 26.308 3.22475C26.3203 4.52832 26.3327 5.83542 26.1291 7.10555C25.7524 9.44459 24.0482 10.9025 22.1221 12.0629C20.3586 13.1242 18.4473 13.6381 16.3523 13.5706C14.6093 13.5149 12.8634 13.5284 11.1087 13.5407ZM4.30156 10.3756C5.9325 10.3246 7.55052 11.6722 7.48364 13.4891H1.31778C1.16583 11.8306 2.69292 10.4255 4.30156 10.3756ZM20.9471 8.63147C20.8168 8.63616 20.6866 8.64086 20.5575 8.64086L20.4343 8.39094C20.6455 8.17446 20.8555 7.95798 21.0656 7.74091C21.5214 7.27158 21.9767 6.80166 22.4366 6.3376C22.7223 6.05014 23.0104 5.7656 23.299 5.48107C23.7378 5.04811 24.1767 4.61515 24.6055 4.17163C24.8824 3.88534 25.1804 3.54624 24.7815 3.14086C24.3961 2.75014 24.1098 3.02176 23.837 3.28048L23.7783 3.33622C23.6393 3.46646 23.5049 3.60139 23.3712 3.73574L23.1535 3.9528C22.9716 4.13174 22.7898 4.31126 22.6085 4.49136L22.6056 4.4943L22.0635 5.02992C21.9947 5.00137 21.9257 4.97341 21.8564 4.94603L21.7977 4.92256C21.7977 4.78822 21.8024 4.6527 21.8071 4.51776C21.8183 4.18688 21.8294 3.85542 21.7737 3.53627C21.7484 3.39136 21.6029 3.26758 21.4569 3.1432C21.3908 3.08939 21.3278 3.032 21.268 2.97131C21.2122 3.03115 21.1436 3.08864 21.0749 3.14672C20.9271 3.27168 20.7793 3.39606 20.7576 3.53979C20.681 4.06678 20.6707 4.60129 20.7271 5.13083C20.8209 6.02667 20.5235 6.68139 19.8471 7.29446C18.7248 8.30939 17.6746 9.40763 16.6497 10.5211C16.5248 10.6578 16.523 10.9083 16.5207 11.1588C16.5207 11.275 16.5195 11.3912 16.506 11.4962C16.6034 11.4762 16.7031 11.461 16.8028 11.4469C17.0363 11.4123 17.2704 11.3782 17.4664 11.2738C17.7579 11.1184 18.019 10.8561 18.2155 10.5857C18.7564 9.84118 19.464 9.61062 20.3522 9.71152C20.8503 9.76784 21.3706 9.76432 21.8634 9.68571C22.0072 9.66283 22.131 9.51616 22.2553 9.36891C22.3122 9.30203 22.3691 9.23398 22.4284 9.17824C22.3727 9.1231 22.3193 9.05622 22.2659 8.98934C22.1462 8.84032 22.0265 8.69131 21.8846 8.66491C21.5807 8.608 21.2639 8.61974 20.9471 8.63147ZM8.61708 6.10998L8.61591 6.10939L7.66082 5.13376C7.61033 5.08308 7.55829 5.03397 7.50476 4.98651C7.37687 4.87094 7.24956 4.75478 7.18034 4.61046C7.10759 4.4591 7.08999 4.28192 7.0718 4.10358C7.06486 4.02784 7.05566 3.95232 7.04423 3.87712C7.13986 3.87008 7.24663 3.84838 7.35399 3.82726C7.5869 3.78032 7.8198 3.73398 7.93303 3.8296C8.48626 4.29718 8.99666 4.81638 9.50706 5.3344C9.65783 5.48811 9.8086 5.64123 9.96055 5.79318L10.5501 6.37984C11.3011 7.12491 12.052 7.87056 12.7713 8.64555C12.8968 8.78048 12.9261 9.004 12.9555 9.22694C12.969 9.32902 12.9825 9.4311 13.0053 9.52438C12.8997 9.51968 12.7777 9.52848 12.6557 9.53728C12.3905 9.55664 12.1253 9.576 12.0338 9.45867C11.3181 8.55286 10.4058 8.39094 9.34103 8.46955C9.28823 8.47366 9.23074 8.48011 9.17148 8.48715C8.76844 8.53232 8.26684 8.58982 8.26567 7.91574C8.2645 7.3144 8.67868 7.30912 9.08055 7.30384C9.16503 7.30267 9.24892 7.3015 9.32871 7.29446C9.36743 7.28649 9.40506 7.27389 9.44076 7.25691C9.4877 7.23814 9.55457 7.21115 9.65783 7.17302L8.61708 6.10998ZM14.1746 12.8191C14.2567 12.9094 14.3494 13.0104 14.4409 13.1271C14.5242 12.9963 14.614 12.8789 14.6944 12.7733C14.8563 12.5621 14.983 12.3955 14.9595 12.253C14.9372 12.1122 14.7454 11.9989 14.5536 11.8857C14.4712 11.8391 14.3913 11.7881 14.3142 11.7332C14.2667 11.7977 14.2068 11.8622 14.1476 11.9268C14.0127 12.0729 13.8783 12.2189 13.8807 12.3621C13.8836 12.5029 14.0097 12.6402 14.174 12.8197L14.1746 12.8191Z" fill="white"/>
</svg>
