<svg width="30" height="30" viewBox="0 0 30 30" fill="none" xmlns="http://www.w3.org/2000/svg">
<path d="M3.27017 0.483521C3.69609 0.660694 3.82457 0.987467 3.83923 1.43744C3.88323 2.70699 3.9683 3.97536 4.03694 5.24432C4.08153 6.06507 4.12553 6.8864 4.16894 7.70715L4.37897 11.7651C4.4171 12.5026 4.45993 13.2394 4.49278 13.9769C4.50921 14.3377 4.21587 14.6738 3.88382 14.6996C3.47433 14.7319 3.14755 14.5031 3.1059 14.1071C3.05308 13.5587 3.01512 13.009 2.99209 12.4586C2.89294 10.4891 2.80201 8.51968 2.70286 6.55083C2.61486 4.82603 2.52921 3.09947 2.42126 1.37408C2.39486 0.938774 2.55795 0.663041 2.93342 0.483521H3.27017ZM7.31054 0.483521C7.78281 0.719361 7.86201 0.895361 7.82798 1.44272C7.77518 2.27227 7.74761 3.10416 7.70537 3.93429C7.65785 4.86709 7.60387 5.79989 7.55635 6.73269C7.50942 7.63792 7.4707 8.54373 7.42318 9.44896C7.3563 10.7179 7.28473 11.9857 7.21374 13.2547C7.1979 13.5427 7.20318 13.8355 7.15097 14.1171C7.07118 14.5465 6.76025 14.7501 6.34019 14.6943C5.99993 14.6486 5.76761 14.3353 5.78755 13.9387C5.85854 12.492 5.93305 11.0459 6.00462 9.59915C6.06798 8.32139 6.12782 7.04245 6.19118 5.76411C6.26451 4.31739 6.34547 2.87184 6.41294 1.42512C6.43171 1.00272 6.56078 0.662454 6.97379 0.483521H7.31054ZM15.007 27.2426H6.96089C5.16627 27.2426 3.37283 27.2455 1.57822 27.239C1.39577 27.2385 1.19982 27.2156 1.03497 27.1452C0.75102 27.0249 0.584993 26.677 0.63838 26.4089C0.704673 26.0763 0.97278 25.8387 1.33417 25.8281C1.82873 25.8129 2.32505 25.8146 2.82078 25.8152C4.22233 25.8164 5.62446 25.8217 7.02601 25.8228C8.68979 25.8246 10.3536 25.8246 12.0168 25.8228C14.4092 25.8211 16.8022 25.8146 19.1946 25.8152C22.2981 25.8152 25.4004 25.8193 28.5039 25.8269C28.6588 25.8275 28.8254 25.8504 28.965 25.912C29.2507 26.0375 29.4062 26.3467 29.3563 26.6166C29.2959 26.9416 29.0647 27.205 28.7432 27.2167C28.034 27.2437 27.3241 27.2379 26.6142 27.239C25.1751 27.2414 23.7366 27.2402 22.2969 27.2402L18.1756 27.2385H15.0076L15.007 27.2426ZM19.4862 10.2063V12.0866C19.4856 13.3397 18.6461 14.4245 17.4124 14.6562C16.8679 14.7589 16.2953 14.7196 15.7345 14.7237C14.9026 14.7301 14.0701 14.6973 13.2394 14.7178C11.7053 14.7554 10.4903 13.5633 10.4997 12.0467C10.5079 10.8206 10.495 9.59563 10.5038 8.37067C10.5143 6.86293 11.6302 5.72891 13.1397 5.70896C14.374 5.69195 15.6089 5.69019 16.8427 5.71013C18.395 5.73477 19.4862 6.86293 19.4862 8.41056V10.2063ZM15.0152 13.2993V13.2946C15.6406 13.2946 16.2672 13.3051 16.8926 13.2916C17.6106 13.2764 18.0829 12.7765 18.0835 12.0514C18.0847 10.8452 18.06 9.63904 18.0935 8.43403C18.1111 7.78576 17.6423 7.10933 16.7823 7.1152C15.5679 7.12341 14.3535 7.11227 13.1391 7.11813C12.421 7.12107 11.9135 7.64261 11.9129 8.36304V12.0367C11.9129 12.81 12.3876 13.291 13.1661 13.2981C13.7821 13.3034 14.3981 13.2993 15.0152 13.2993ZM20.3645 20.2507C20.3645 19.671 20.3674 19.0914 20.3639 18.5118C20.358 17.6294 20.6572 16.8838 21.3501 16.3206C21.7824 15.9698 22.2876 15.7644 22.8425 15.7574C24.1796 15.7415 25.5172 15.7357 26.853 15.7586C28.173 15.7809 29.2689 16.7852 29.3299 18.1416C29.3956 19.5965 29.3809 21.0603 29.3047 22.5146C29.2425 23.7073 28.1331 24.7046 26.9422 24.7287C25.5688 24.7569 24.1942 24.7574 22.8208 24.731C21.5495 24.7064 20.4484 23.6228 20.3885 22.3539C20.3551 21.6546 20.3826 20.9517 20.3826 20.2507H20.3645ZM21.7871 20.2419H21.786C21.786 20.8872 21.7789 21.5325 21.7877 22.1773C21.7977 22.842 22.2981 23.3307 22.9669 23.333C24.2282 23.3359 25.4896 23.3359 26.7509 23.3313C27.408 23.3295 27.946 22.8291 27.9536 22.1773C27.9694 20.8966 27.9682 19.6153 27.9548 18.3346C27.9532 18.0261 27.8307 17.7305 27.6135 17.5114C27.3962 17.2923 27.1017 17.1672 26.7932 17.163C25.4941 17.1504 24.195 17.1498 22.8959 17.1613C22.301 17.166 21.7959 17.6869 21.7883 18.2789C21.7807 18.9336 21.7871 19.5871 21.7871 20.2419ZM9.61027 20.2489C9.61027 20.9312 9.62201 21.6141 9.60793 22.2964C9.58211 23.5935 8.42521 24.7269 7.12339 24.7351C5.85209 24.7428 4.58078 24.7439 3.31006 24.7369C1.77769 24.7293 0.67182 23.6627 0.639553 22.1298C0.61374 20.8766 0.633687 19.6229 0.63486 18.3692C0.636033 16.8556 1.90441 15.7093 3.33529 15.7468C4.54969 15.7791 5.76585 15.7527 6.98142 15.7533C8.27209 15.7545 9.37971 16.6274 9.57801 17.8952C9.67657 18.527 9.61673 19.1823 9.62729 19.8277C9.62963 19.9685 9.62729 20.1087 9.62729 20.2489H9.61027ZM8.20697 20.2653H8.21577V19.3126C8.21459 18.9946 8.21577 18.6766 8.2099 18.3593C8.19817 17.6629 7.69715 17.1619 7.00606 17.1601C5.7635 17.1572 4.52094 17.1572 3.27838 17.1601C2.57849 17.1613 2.05577 17.6359 2.04403 18.3393C2.02415 19.6103 2.02415 20.8816 2.04403 22.1526C2.05459 22.8561 2.57321 23.3307 3.27251 23.3318C4.54265 23.3342 5.81395 23.3348 7.08409 23.3307C7.66723 23.3289 8.19582 22.8109 8.20462 22.2277C8.21459 21.5742 8.20697 20.9195 8.20697 20.2653ZM20.3709 10.231C20.365 7.75232 22.3052 5.7512 24.8026 5.71365C27.3176 5.67493 29.3551 7.71125 29.3586 10.1987C29.3628 12.712 27.3757 14.7172 24.8079 14.7096C22.3439 14.7008 20.3803 12.7044 20.3709 10.231ZM24.8401 13.2981C26.6254 13.2775 27.9788 11.9065 27.9589 10.1371C27.9413 8.46923 26.4834 7.07061 24.7744 7.11813C23.0696 7.16507 21.6944 8.6376 21.7766 10.3999C21.847 11.9446 23.2462 13.3157 24.8401 13.2981ZM14.9794 24.7369C12.5372 24.768 10.4932 22.7164 10.5026 20.246C10.5114 17.765 12.4773 15.8589 14.7882 15.7521C17.4722 15.6277 19.6065 17.8946 19.4933 20.4472C19.3941 22.7199 17.4505 24.7879 14.9794 24.7369ZM18.0841 20.2653C18.0823 18.5006 16.7142 17.1595 14.9161 17.1595C13.2969 17.1595 11.93 18.5734 11.9077 20.229C11.8854 21.9203 13.3274 23.3711 15.0493 23.3383C16.7084 23.306 18.0858 21.9391 18.0841 20.2653ZM6.43171 29.2273C5.89902 29.2273 5.36691 29.2296 4.83422 29.2273C4.3643 29.2237 4.04809 28.9263 4.05571 28.501C4.06275 28.0956 4.38073 27.8239 4.84889 27.8239C5.92307 27.8239 6.99609 27.8222 8.07027 27.8239C8.53491 27.8257 8.88163 28.1349 8.87577 28.5338C8.8699 28.931 8.54137 29.2226 8.08377 29.2261C7.53289 29.2308 6.98201 29.2273 6.43171 29.2273ZM23.5501 27.8239C24.0916 27.8239 24.6325 27.8228 25.174 27.8239C25.6128 27.8257 25.9325 28.1108 25.9396 28.5027C25.9466 28.9193 25.6398 29.2231 25.1869 29.2255C24.0857 29.2308 22.9845 29.2308 21.8833 29.2255C21.4527 29.2231 21.123 28.9116 21.1201 28.5291C21.1172 28.1261 21.4451 27.8269 21.898 27.8251C22.4495 27.8222 22.9998 27.8239 23.5501 27.8239Z" fill="white"/>
<path d="M15.0252 8.21343C16.0971 8.2281 16.9941 9.07935 17.0052 10.228C17.017 11.3398 16.049 12.2626 14.9402 12.2139C13.7703 12.1629 13.0047 11.294 12.9942 10.1999C12.9842 9.08933 13.9329 8.18996 15.0252 8.21343ZM15.0018 9.63023C14.6662 9.62906 14.3875 9.9042 14.3975 10.2275C14.4057 10.5267 14.7043 10.8147 15.0023 10.8124C15.3145 10.8088 15.5861 10.5314 15.5861 10.2151C15.5862 10.1383 15.5711 10.0622 15.5417 9.99121C15.5123 9.92021 15.4693 9.8557 15.4149 9.80137C15.3606 9.74705 15.2961 9.70396 15.2251 9.6746C15.1541 9.64523 15.0786 9.63015 15.0018 9.63023ZM22.8549 20.2395C22.9065 19.092 23.7185 18.2519 24.9158 18.2443C25.9718 18.2372 26.8882 19.2046 26.8747 20.2565C26.8612 21.3372 25.9167 22.2981 24.8701 22.2565C23.6569 22.2084 22.8948 21.3512 22.8549 20.2395ZM25.4456 20.2612C25.4515 19.9239 25.2062 19.6646 24.8812 19.6646C24.5427 19.6646 24.2594 19.9333 24.2611 20.2524C24.2635 20.5651 24.558 20.845 24.8842 20.842C25.1845 20.8391 25.4403 20.5751 25.4456 20.2612ZM7.14278 20.2518C7.13984 21.3231 6.21584 22.2512 5.13872 22.2623C4.06923 22.2741 3.11296 21.3178 3.12059 20.2442C3.12822 19.1665 4.04635 18.2431 5.11819 18.2325C6.19296 18.2231 7.14571 19.1735 7.14278 20.2518ZM4.54267 20.2395C4.53739 20.5563 4.79728 20.8344 5.10939 20.8467C5.42326 20.859 5.72422 20.5768 5.7336 20.26C5.74358 19.9456 5.45552 19.6605 5.12816 19.6599C5.05162 19.6593 4.97572 19.6739 4.90482 19.7028C4.83392 19.7317 4.76943 19.7742 4.71503 19.8281C4.66063 19.8819 4.6174 19.946 4.58782 20.0166C4.55824 20.0872 4.5429 20.163 4.54267 20.2395ZM26.2523 9.35039C26.6512 9.34981 27.0537 9.73994 27.0595 10.1324C27.0654 10.5167 26.7322 10.8429 26.3403 10.8358C25.939 10.8282 25.5453 10.4322 25.55 10.0403C25.5535 9.66602 25.8745 9.35098 26.2523 9.35039ZM23.9871 8.27679C24.4283 8.27445 24.7146 8.55252 24.7129 8.98079C24.7105 9.38559 24.3521 9.74698 23.9455 9.75226C23.5342 9.75695 23.2391 9.46655 23.2391 9.0553C23.2391 8.63935 23.5853 8.27914 23.9871 8.27679ZM24.9287 11.4172C24.9317 11.7915 24.6149 12.103 24.2306 12.103C23.8141 12.103 23.4468 11.7352 23.4451 11.3169C23.4451 11.2237 23.4635 11.1315 23.4993 11.0455C23.5351 10.9595 23.5875 10.8814 23.6536 10.8158C23.7197 10.7501 23.7981 10.6982 23.8844 10.663C23.9706 10.6277 24.063 10.6099 24.1561 10.6106C24.5539 10.6147 24.9258 11.0024 24.9287 11.4172ZM13.5902 21.3495C13.592 20.9564 13.8871 20.6502 14.2673 20.6455C14.6756 20.6396 15.0505 21.0356 15.0557 21.4633C15.0598 21.8282 14.8228 22.1204 14.3605 22.1444C13.9557 22.1661 13.5885 21.7631 13.5902 21.3495ZM16.4608 20.8637C16.0742 20.8608 15.7005 20.48 15.6958 20.0852C15.6905 19.6898 15.9809 19.3888 16.3705 19.3853C16.7929 19.3812 17.19 19.7684 17.1859 20.1791C17.1818 20.5798 16.8785 20.8661 16.4602 20.8637H16.4608ZM14.8428 18.9999C14.831 19.4205 14.4614 19.7983 14.0649 19.796C13.6653 19.7931 13.3573 19.4604 13.3702 19.0462C13.3831 18.6532 13.7692 18.2918 14.1652 18.3017C14.5559 18.3117 14.8533 18.6186 14.8428 18.9999Z" fill="white"/>
</svg>
