<svg width="33" height="33" viewBox="0 0 33 33" fill="none" xmlns="http://www.w3.org/2000/svg">
<path d="M3.82506 22.2784L2.90186 21.8165L2.73173 22.1563C2.46913 22.6837 2.33222 23.2647 2.33173 23.8539C2.33173 24.4405 2.46986 25.0272 2.73173 25.5509L2.90239 25.8912L3.82506 25.4293L3.65546 25.0896C3.46396 24.7058 3.3641 24.2828 3.36373 23.8539C3.36373 23.4272 3.46453 22.9995 3.65546 22.6181L3.82506 22.2784ZM8.31093 29.2731H8.22239C8.05867 29.2735 7.89648 29.2414 7.74524 29.1787C7.594 29.116 7.45671 29.0239 7.34133 28.9077L6.61119 29.6384C6.82234 29.8505 7.07346 30.0187 7.35002 30.1331C7.62658 30.2475 7.92309 30.306 8.22239 30.3051H8.31093C8.61014 30.3059 8.90655 30.2474 9.18301 30.133C9.45948 30.0186 9.71051 29.8505 9.92159 29.6384L9.19199 28.9077C9.07661 29.0239 8.93932 29.116 8.78808 29.1787C8.63684 29.2414 8.47465 29.2735 8.31093 29.2731ZM15.0827 21.1659L14.3531 21.896L14.5045 22.0469C14.6421 22.1851 14.7179 22.368 14.7179 22.5632C14.7179 22.7584 14.6421 22.9419 14.5045 23.0795L14.3531 23.2304L15.0832 23.9611L15.2341 23.8096C15.3983 23.6464 15.5284 23.4522 15.617 23.2384C15.7056 23.0245 15.751 22.7952 15.7504 22.5637C15.7504 22.0928 15.5669 21.6501 15.2341 21.3173L15.0827 21.1659ZM12.6539 27.7253V28.7573C13.2011 28.7566 13.7258 28.5389 14.1127 28.1518C14.4997 27.7648 14.7173 27.2401 14.7179 26.6928H13.6859C13.6856 26.9664 13.5768 27.2287 13.3833 27.4222C13.1898 27.6157 12.9275 27.725 12.6539 27.7253ZM12.5317 16.8859C12.7239 16.9812 12.8856 17.1284 12.9983 17.3109C13.111 17.4934 13.1704 17.7039 13.1696 17.9184H14.2021C14.2036 17.512 14.0911 17.1134 13.8775 16.7677C13.6639 16.4221 13.3577 16.1432 12.9936 15.9627L12.8848 15.9083L12.4229 16.8315L12.5317 16.8859Z" fill="white"/>
<path d="M31.528 13.2224L31.2347 12.6357V11.208C31.2338 10.5625 30.9914 9.9407 30.5551 9.46495C30.1189 8.9892 29.5203 8.69396 28.8773 8.63734L28.8416 8.6016C28.5233 8.28156 28.1447 8.02783 27.7277 7.85508C27.3107 7.68233 26.8636 7.594 26.4123 7.5952C25.5014 7.59633 24.6282 7.95867 23.9841 8.60275C23.34 9.24683 22.9777 10.1201 22.9765 11.0309C22.9765 12.5243 23.7611 13.8757 25.0405 14.6149V16.5669L22.4603 17.8571L19.7285 16.4912L18.3115 14.1285L17.8261 10.7344L20.5301 2.08267L15.8048 0.733337L15.6112 3.0528L12.5819 3.55734L13.6816 10.7035L13.2992 14.1467C13.0472 14.0366 12.7877 13.9444 12.5227 13.8709C12.3047 13.3808 11.9642 12.955 11.5339 12.6346C11.1037 12.3142 10.5982 12.11 10.0661 12.0416L7.71573 11.7483L2.68693 7.2784L0.606396 11.4395L1.76746 12.0197L1.21973 15.8533H5.8224L9.68906 17.7867L11.1056 20.6208V23.3376L9.44373 24.5835L7.97013 24.2155L7.66613 21.1771C7.6069 20.5662 7.3219 19.9995 6.86688 19.5877C6.41186 19.1758 5.81956 18.9486 5.20586 18.9504C4.88104 18.9495 4.55927 19.0131 4.25917 19.1374C3.95908 19.2617 3.68663 19.4443 3.4576 19.6747L3.14986 19.9824H3.0016C2.27637 19.9834 1.58114 20.272 1.06842 20.7849C0.555705 21.2978 0.267368 21.9932 0.266663 22.7184C0.266663 25.3861 1.6176 27.8224 3.87946 29.2368L4.4576 29.5984C4.66991 30.3921 5.13781 31.0937 5.78894 31.5947C6.44007 32.0957 7.23815 32.3683 8.05973 32.3701H9.61706C10.3529 32.3708 11.0724 32.1528 11.6843 31.744L12.2976 31.3349C14.7856 31.2501 16.7829 29.2005 16.7829 26.6923V26.3819C17.0609 26.0729 17.2893 25.7228 17.4603 25.344C18.1974 25.8153 19.04 26.0961 19.9125 26.1611C20.7849 26.226 21.6599 26.0732 22.4587 25.7163C23.1189 26.0176 23.8453 26.176 24.5712 26.176C25.7053 26.1773 26.8072 25.7988 27.7011 25.1009C28.595 24.403 29.2296 23.4259 29.5035 22.3253L29.6288 21.8251L29.6411 21.8155C30.4622 21.1615 31.125 20.3304 31.5796 19.3842C32.0343 18.438 32.2692 17.4012 32.2667 16.3515C32.2667 15.2704 32.0112 14.1888 31.528 13.2224ZM24.0085 11.0315C24.0092 10.3942 24.2627 9.78319 24.7133 9.33255C25.164 8.88192 25.775 8.62844 26.4123 8.62774C27.0544 8.62774 27.6576 8.8784 28.112 9.33174L28.44 9.66027H28.6539C29.5077 9.66027 30.2021 10.3552 30.2021 11.2085V12.3728L25.6091 13.7509C25.1228 13.483 24.7176 13.0891 24.4361 12.6106C24.1546 12.1321 24.0065 11.5866 24.0085 11.0315ZM18.7472 16.8619L16.9184 19.4213C16.8735 19.3655 16.8271 19.3109 16.7792 19.2576C16.7377 18.0722 16.3331 16.9282 15.6203 15.9803L17.6187 14.9813L18.7472 16.8619ZM15.5227 4.11467L15.2363 7.5536L16.2651 7.63894L16.7291 2.07094L19.2293 2.7856L17.0123 9.8816L15.7504 9.04054L14.5893 9.81494L13.7573 4.40854L15.5227 4.11467ZM14.6885 10.9893L15.7504 10.2811L16.8208 10.9947L17.2517 14.0112L14.9008 15.1867C14.7046 15.0072 14.4963 14.8415 14.2773 14.6907L14.6885 10.9893ZM3.008 8.94561L6.57973 12.1211L5.42773 12.6971L1.99146 10.9781L3.008 8.94561ZM2.74133 12.5077L4.98453 13.6293L5.2832 14.8224H2.41013L2.7408 12.5077H2.74133ZM6.02933 13.5504L7.584 12.7728L9.93813 13.0672C10.2853 13.112 10.6156 13.2434 10.8985 13.4494C11.1815 13.6554 11.4081 13.9293 11.5573 14.2459L9.89653 16.7371L6.3872 14.9824L6.02933 13.5504ZM10.6688 17.44L12.3616 14.9008C13.2753 15.1762 14.0853 15.7197 14.6864 16.4609C15.2876 17.2021 15.6523 18.1067 15.7333 19.0576L11.9029 19.9083L10.6688 17.44ZM4.42666 28.3621C3.46695 27.7666 2.67565 26.9353 2.12812 25.9474C1.58058 24.9595 1.29503 23.8479 1.29866 22.7184C1.29909 22.2669 1.47864 21.834 1.79791 21.5147C2.11718 21.1954 2.55008 21.0159 3.0016 21.0155H3.5776L4.18773 20.4053C4.45973 20.1333 4.82133 19.984 5.2064 19.984C5.56369 19.9831 5.90848 20.1155 6.17339 20.3552C6.4383 20.595 6.60429 20.9249 6.63893 21.2805L6.96266 24.5195L4.72426 28.5483L4.42666 28.3621ZM9.6176 31.3381H8.06026C7.46895 31.3369 6.89438 31.1417 6.42471 30.7824C5.95505 30.4232 5.61623 29.9197 5.46026 29.3493L7.75146 25.2251L9.1904 25.5851L11.4864 30.6357L11.112 30.8859C10.6696 31.1813 10.1495 31.3387 9.6176 31.3381ZM12.4629 30.2907L10.1984 25.3093L11.6635 24.2101L15.7504 26.4805V26.6933C15.7504 28.576 14.3035 30.1259 12.4629 30.2907ZM16.7829 23.6848C16.7845 24.351 16.5631 24.9985 16.1541 25.5243L12.1376 23.2928V20.9136L16.0869 20.0363C16.5382 20.5754 16.7846 21.2564 16.7829 21.9595V23.6848ZM17.7675 24.3029C17.7984 24.1003 17.8155 23.8939 17.8155 23.6848V23.5285L18.0784 23.704C18.4778 23.9709 18.9474 24.1131 19.4277 24.1125C19.8027 24.1125 20.1792 24.0235 20.5147 23.8555L21.1424 23.5419L20.6811 22.6187L20.0533 22.9323C19.8327 23.0431 19.5866 23.0934 19.3402 23.078C19.0938 23.0627 18.8558 22.9822 18.6507 22.8448L17.8149 22.288V21.9595C17.8149 21.4101 17.7056 20.8779 17.4981 20.3861L19.5275 17.5456L21.944 18.7541V24.8144C21.4245 25.0317 20.8671 25.1441 20.304 25.1451C19.3899 25.1446 18.5003 24.8493 17.7675 24.3029ZM24.5712 25.1451C24.023 25.1443 23.4807 25.0329 22.9765 24.8176V18.7547L25.4096 17.5381L28.6085 21.6507L28.5019 22.0757C28.2838 22.953 27.7782 23.732 27.0658 24.2884C26.3534 24.8448 25.4752 25.146 24.5712 25.1451ZM29.2507 20.7947L26.0736 16.7093V14.6907L30.4512 13.3776L30.6048 13.6853C31.018 14.514 31.2336 15.4271 31.2347 16.3531C31.2347 18.0629 30.5157 19.6635 29.2507 20.7947Z" fill="white"/>
<path d="M24.4411 23.0794H24.0085V24.1114H24.4405C25.0244 24.1121 25.5935 23.9287 26.0672 23.5874C26.5408 23.246 26.8948 22.7641 27.0789 22.2101L26.0992 21.8842C25.9834 22.2324 25.7608 22.5353 25.463 22.7497C25.1653 22.9642 24.8075 23.0794 24.4405 23.0789L24.4411 23.0794ZM29.1701 16.248C29.1701 16.9232 29.0101 17.5994 28.7083 18.2037L29.6315 18.665C30.0048 17.9184 30.2021 17.0826 30.2021 16.248V15.8533H29.1701V16.248ZM26.8917 11.7248C27.191 11.7256 27.4874 11.667 27.7639 11.5525C28.0404 11.4379 28.2914 11.2697 28.5024 11.0576L27.7728 10.3269C27.6574 10.4431 27.5201 10.5352 27.3689 10.5979C27.2177 10.6606 27.0555 10.6927 26.8917 10.6922H26.2869C26.1233 10.6927 25.9611 10.6607 25.8099 10.5981C25.6586 10.5355 25.5213 10.4435 25.4059 10.3274L24.6763 11.0576C24.8874 11.2696 25.1384 11.4377 25.4149 11.5522C25.6913 11.6666 25.9877 11.7251 26.2869 11.7242L26.8917 11.7248Z" fill="white"/>
</svg>
