<svg width="34" height="37" viewBox="0 0 34 37" fill="none" xmlns="http://www.w3.org/2000/svg">
<path d="M11.9664 1.40002C11.9664 1.16663 11.8737 0.942797 11.7087 0.777765C11.5436 0.612733 11.3198 0.52002 11.0864 0.52002C10.853 0.52002 10.6292 0.612733 10.4642 0.777765C10.2991 0.942797 10.2064 1.16663 10.2064 1.40002C10.2064 3.06146 10.8482 4.18786 11.4267 5.20514C11.4918 5.31895 11.5558 5.43159 11.6179 5.54365C12.2269 6.63602 12.8065 7.84338 12.8065 9.97885C12.8065 11.0654 12.6563 11.8222 12.4522 12.3924C12.248 12.9615 11.977 13.3856 11.6719 13.811C11.6109 13.8954 11.5487 13.9811 11.4842 14.0673C10.8928 14.8716 10.207 15.8039 10.207 17.5187C10.207 17.7521 10.2997 17.9759 10.4648 18.1409C10.6298 18.306 10.8536 18.3987 11.087 18.3987C11.3204 18.3987 11.5442 18.306 11.7093 18.1409C11.8743 17.9759 11.967 17.7521 11.967 17.5187C11.967 16.3952 12.3384 15.8854 12.9068 15.1063L13.1022 14.8364C13.4472 14.3554 13.8256 13.7775 14.1089 12.9861C14.3923 12.1953 14.5665 11.2331 14.5665 9.97943C14.5665 7.43565 13.8467 5.92674 13.1556 4.68653L12.9667 4.35037C12.3824 3.31431 11.9664 2.57687 11.9664 1.40002ZM16.6468 1.40002C16.6468 1.16663 16.5541 0.942797 16.3891 0.777765C16.2241 0.612733 16.0002 0.52002 15.7668 0.52002C15.5335 0.52002 15.3096 0.612733 15.1446 0.777765C14.9796 0.942797 14.8868 1.16663 14.8868 1.40002C14.8868 3.06146 15.5275 4.18786 16.1071 5.20514C16.1716 5.31895 16.2356 5.43159 16.2978 5.54365C16.9067 6.63602 17.4864 7.84338 17.4864 9.97885C17.4864 11.0654 17.3362 11.8222 17.1314 12.3924C16.9279 12.9615 16.6562 13.3856 16.3512 13.811C16.2907 13.8954 16.228 13.9811 16.164 14.0673C15.5727 14.8716 14.8863 15.8039 14.8863 17.5187C14.8863 17.7521 14.979 17.9759 15.144 18.1409C15.309 18.306 15.5329 18.3987 15.7663 18.3987C15.9997 18.3987 16.2235 18.306 16.3885 18.1409C16.5535 17.9759 16.6463 17.7521 16.6463 17.5187C16.6463 16.3952 17.0182 15.8854 17.5861 15.1063C17.6489 15.0201 17.7146 14.9303 17.7815 14.8364C18.1264 14.3554 18.5048 13.7775 18.7888 12.9861C19.0721 12.1953 19.2464 11.2331 19.2464 9.97943C19.2464 7.43565 18.5259 5.92674 17.8354 4.68653L17.6465 4.35037C17.0622 3.31431 16.6468 2.57687 16.6468 1.40002ZM21.3261 1.40002C21.3261 1.16663 21.2334 0.942797 21.0684 0.777765C20.9033 0.612733 20.6795 0.52002 20.4461 0.52002C20.2127 0.52002 19.9889 0.612733 19.8238 0.777765C19.6588 0.942797 19.5661 1.16663 19.5661 1.40002C19.5661 3.06146 20.2073 4.18786 20.7864 5.20514C20.8509 5.31895 20.9154 5.43159 20.9776 5.54365C21.5866 6.63602 22.1662 7.84338 22.1662 9.97885C22.1662 11.0654 22.0154 11.8222 21.8113 12.3924C21.6077 12.9615 21.3361 13.3856 21.031 13.811C20.97 13.8954 20.9078 13.9811 20.8433 14.0673C20.2519 14.8716 19.5661 15.8039 19.5661 17.5187C19.5661 17.7521 19.6588 17.9759 19.8238 18.1409C19.9889 18.306 20.2127 18.3987 20.4461 18.3987C20.6795 18.3987 20.9033 18.306 21.0684 18.1409C21.2334 17.9759 21.3261 17.7521 21.3261 17.5187C21.3261 16.3952 21.6975 15.8854 22.2659 15.1063L22.4613 14.8364C22.8063 14.3554 23.1847 13.7775 23.468 12.9861C23.7514 12.1953 23.9256 11.2331 23.9256 9.97943C23.9256 7.43565 23.2058 5.92674 22.5147 4.68653L22.3258 4.35037C21.742 3.31431 21.3261 2.57687 21.3261 1.40002Z" fill="white"/>
<path fill-rule="evenodd" clip-rule="evenodd" d="M1.42752 21.1449C1.31019 21.2076 1.20224 21.3003 1.11248 21.3901C0.955257 21.5467 0.867258 21.7597 0.867258 21.982C0.815045 28.0705 4.42891 33.1815 9.16038 34.3936V35.9066C9.16038 36.1286 9.24858 36.3416 9.40558 36.4986C9.56258 36.6556 9.77552 36.7438 9.99755 36.7438H24.0834C24.1934 36.7438 24.3023 36.7221 24.4038 36.68C24.5054 36.6378 24.5977 36.5761 24.6754 36.4983C24.7531 36.4205 24.8147 36.3281 24.8567 36.2265C24.8986 36.1249 24.9202 36.016 24.92 35.906V34.3924C29.6779 33.2015 33.2653 28.091 33.2653 21.9815C33.2653 21.7594 33.1771 21.5465 33.0201 21.3895C32.8631 21.2325 32.6502 21.1443 32.4282 21.1443L1.42752 21.1449ZM22.8092 32.9738C27.4004 32.9738 31.2173 28.4917 31.5605 22.8245H2.52048C2.86368 28.4917 6.65414 32.9738 11.2718 32.9738H22.8092ZM10.84 35.0641H23.241V34.6376H10.84V35.0641Z" fill="white"/>
</svg>
