<svg width="31" height="24" viewBox="0 0 31 24" fill="none" xmlns="http://www.w3.org/2000/svg">
<path d="M30.0973 9.71377C30.383 9.19046 30.5255 8.57153 30.5255 7.95377C30.5725 5.7174 28.9556 3.29094 26.4816 2.05425C22.7704 0.151102 18.3457 0.483742 16.0149 0.816968C11.3046 1.53035 6.88052 3.52913 3.31241 6.62145C3.16927 6.66838 1.98068 7.90625 1.55241 8.42897C0.220095 9.99947 -0.255692 12.1402 0.220095 14.1384C0.790921 16.6599 2.5034 18.7531 4.78729 19.8948C4.97737 19.9904 5.21556 20.0849 5.40623 20.133C5.54879 20.9895 5.97705 21.7504 6.64292 22.3688C7.54639 23.1778 8.87871 23.606 10.5912 23.606C11.4477 23.606 12.2573 23.5104 13.1133 23.3678C19.8212 22.1312 23.2468 20.3706 24.8642 19.5146C28.5273 17.6115 31.7628 15.8984 30.0973 9.71377ZM5.64383 18.1817C3.88383 17.3258 2.59903 15.6608 2.12324 13.7577C1.74191 12.3303 2.12324 10.8079 3.02671 9.66625C3.26489 9.38054 3.5506 9.09542 3.83631 8.80972C4.78671 9.71377 5.40564 10.9035 5.69135 12.1883C5.78639 12.6635 6.16713 12.9968 6.64292 12.9492H6.833C7.35631 12.8542 7.68953 12.3309 7.59391 11.8551C7.26068 10.1896 6.45225 8.71526 5.26249 7.5255C6.11903 6.85963 6.97556 6.19377 7.92713 5.67046C8.97375 6.57393 9.49705 8.00129 9.21193 9.33361C9.11631 9.85692 9.40143 10.3327 9.92532 10.4758H10.1154C10.5906 10.4758 10.9719 10.1901 11.0664 9.71435C11.4477 7.90625 10.9238 6.05062 9.68713 4.67137C10.8841 4.09758 12.1249 3.62028 13.3978 3.24401C14.1118 4.2431 14.4444 5.4798 14.4444 6.71708C14.4444 7.24038 14.8257 7.66806 15.3485 7.71617H15.396C15.9193 7.71617 16.3476 7.2879 16.3476 6.8127C16.3963 5.41301 16.0501 4.02786 15.3485 2.81574C15.6817 2.76881 15.9668 2.7207 16.2995 2.67318C16.8703 2.57814 17.5367 2.53062 18.3452 2.4831C18.4883 3.38657 18.5833 4.29121 18.6784 5.19526L18.8209 6.38443C18.8685 6.86022 19.2973 7.24097 19.7725 7.24097H19.8681C20.3915 7.19286 20.7716 6.71708 20.6766 6.19377C20.6296 5.81302 20.5815 5.38534 20.534 5.00459C20.4384 4.19558 20.3439 3.33905 20.2008 2.53062C21.4856 2.57755 22.7698 2.76822 24.0071 3.14897C24.1972 4.4807 23.8164 5.81302 22.9599 6.86022C22.6272 7.24038 22.6272 7.85932 23.0074 8.19196C23.1981 8.3351 23.3887 8.43014 23.6263 8.43014C23.9115 8.43014 24.1496 8.3351 24.3397 8.09691C25.3314 6.95853 25.9024 5.51427 25.9572 4.0055C27.4796 4.95707 28.5737 6.57451 28.5262 7.95377C28.5262 8.28758 28.4311 8.62022 28.288 8.90534C28.1929 9.00097 28.0979 9.09601 28.0504 9.23857C27.6691 9.71494 27.1939 10.0951 26.623 10.3327C24.7199 11.1892 22.6267 11.3324 20.3909 11.4749C18.6778 11.5219 17.0128 11.7601 15.3479 12.1408L15.3015 12.1396C13.3984 12.6629 10.7343 13.7096 8.73615 15.8509C8.3554 16.2316 8.06969 16.7074 7.73647 17.1357C6.833 18.4205 6.5954 18.6575 5.64383 18.1817ZM23.9601 17.8016C22.3902 18.61 19.2023 20.2755 12.7325 21.4647C10.4492 21.893 8.78367 21.7029 7.92772 20.9414C7.68953 20.7032 7.45135 20.4181 7.35631 20.0849C7.7259 19.9027 8.06351 19.6617 8.35599 19.3715C8.64111 19.0864 8.87929 18.7531 9.11689 18.4205C9.16441 18.3249 9.26004 18.2298 9.30756 18.1823C9.54516 17.8016 9.83087 17.4689 10.116 17.1357C11.7815 15.3276 14.1124 14.4235 15.7773 13.9958L15.9205 13.9483C17.4536 13.6149 19.0144 13.4238 20.5827 13.3775C22.866 13.2349 25.2449 13.0918 27.4338 12.0927C27.7987 11.915 28.1487 11.7082 28.4804 11.4744V11.5694C29.0982 15.1369 27.2425 16.0885 23.9601 17.8016Z" fill="white"/>
</svg>
