<svg width="38" height="39" viewBox="0 0 38 39" fill="none" xmlns="http://www.w3.org/2000/svg">
<path d="M10.6724 38.6682C10.5184 38.5327 10.4605 38.3746 10.3685 37.8333C10.3054 37.4668 9.68762 33.9138 8.9952 29.9394C8.3022 25.9637 7.58663 21.8434 7.40426 20.7839C7.22189 19.7238 7.04763 18.7836 7.01694 18.695C6.98684 18.607 5.47694 17.0265 3.6631 15.1855C1.84868 13.3444 0.315625 11.739 0.255415 11.6174C0.160467 11.4229 0.160467 11.3731 0.255415 11.1988C0.316204 11.0911 0.454572 10.9528 0.562835 10.892C0.73652 10.7936 0.786309 10.7936 0.98373 10.892C1.10705 10.9505 2.64589 12.4679 4.40357 14.262C6.16068 16.0562 7.62657 17.5343 7.66015 17.5458C7.69489 17.5557 7.76262 17.3907 7.81184 17.1753C8.04052 16.1778 8.8742 14.9116 9.70731 14.2962C10.5005 13.7109 11.7249 13.261 12.5308 13.261C12.6744 13.261 12.7804 13.2321 12.767 13.2026C12.7532 13.173 11.5495 10.7693 10.0923 7.87336C8.09899 3.9122 7.44247 2.54125 7.44247 2.34441C7.44086 2.24197 7.4679 2.14112 7.52054 2.05322C7.57317 1.96533 7.64931 1.89388 7.74038 1.84693C7.83144 1.79999 7.93381 1.77941 8.03594 1.78752C8.13807 1.79563 8.2359 1.8321 8.31841 1.89283C8.42436 1.97099 9.53884 4.11541 11.3388 7.71415C13.8213 12.6792 14.3262 13.6165 14.4396 13.4781C14.4524 13.4585 13.9678 10.8312 13.3639 7.63078C12.7595 4.43036 12.2639 1.67283 12.2628 1.50146C12.2628 1.25425 12.2993 1.16104 12.4556 1.03831C12.7578 0.800937 13.1283 0.864042 13.2979 1.18188C13.3668 1.31041 14.2318 5.80188 15.304 11.5971C15.5078 12.6977 15.7006 13.6623 15.7324 13.7404C15.7834 13.8637 15.8355 13.8284 16.1284 13.444C16.5985 12.8332 17.4785 12.0151 18.091 11.6186C19.2437 10.8729 20.3767 10.4954 21.8745 10.3553C22.6398 10.2864 22.9009 10.2864 23.5795 10.3947C26.9443 10.9047 29.6109 13.3496 30.3092 16.5663C30.3804 16.8928 30.4597 17.2164 30.4857 17.2847C30.5222 17.3831 31.265 16.6629 33.6838 14.1926C35.4166 12.4216 36.9277 10.9343 37.0417 10.8868C37.4314 10.7241 37.9044 11.1282 37.8013 11.5375C37.77 11.6631 36.5132 12.9947 34.3716 15.1733L31.687 17.9042C31.234 18.3653 30.933 18.954 30.8244 19.5913C30.6698 20.4944 29.2786 28.4764 28.0455 35.543C27.5638 38.3011 27.5146 38.5205 27.3397 38.6751C27.2188 38.7825 27.0626 38.8419 26.9009 38.8418H11.1165C10.9519 38.8419 10.7933 38.7798 10.6724 38.6682ZM26.495 37.6087C26.495 37.5896 26.8598 35.4776 27.3067 32.9209L28.9052 23.7481C29.3383 21.2621 29.7105 19.1524 29.7331 19.0598C29.7378 19.0399 29.738 19.0191 29.7335 18.9992C29.7291 18.9792 29.7202 18.9605 29.7075 18.9444C29.6948 18.9284 29.6786 18.9154 29.6602 18.9065C29.6418 18.8976 29.6216 18.893 29.6011 18.893H8.42726C8.4068 18.8932 8.38663 18.8979 8.36823 18.9068C8.34982 18.9157 8.33364 18.9286 8.32088 18.9446C8.30811 18.9606 8.29908 18.9792 8.29445 18.9992C8.28982 19.0191 8.2897 19.0398 8.2941 19.0598C8.31436 19.1478 8.68257 21.2621 9.11331 23.7481C9.58924 26.5038 10.0692 29.2588 10.5532 32.0131C10.677 32.7264 10.9457 34.2618 11.1495 35.4231C11.3538 36.5857 11.5212 37.5612 11.5212 37.5913C11.5212 37.6208 14.89 37.6504 19.0075 37.6504C23.1256 37.6504 26.495 37.6307 26.495 37.611V37.6087ZM9.88968 17.6084C9.88968 17.3826 10.3592 16.594 10.6875 16.2698C11.0592 15.8663 11.4968 15.4304 12.818 15.4477C14.1212 15.4199 14.9005 15.8646 15.6039 17.2633L15.6514 17.3924C15.6851 17.4851 15.7465 17.5651 15.8273 17.6217C15.9081 17.6782 16.0043 17.7085 16.1029 17.7085H16.5024C16.5274 17.7086 16.5522 17.703 16.5747 17.6921C16.5973 17.6812 16.617 17.6654 16.6326 17.6458C16.6481 17.6262 16.659 17.6033 16.6645 17.5789C16.6699 17.5544 16.6697 17.5291 16.6639 17.5047C16.4549 16.6348 15.9594 15.8604 15.2572 15.306C14.5549 14.7516 13.6867 14.4493 12.7919 14.4479C11.3504 14.4479 9.90878 15.3563 9.27657 16.6705C9.12952 16.9767 8.98826 17.3351 8.9622 17.4671C8.95643 17.4966 8.95721 17.527 8.96448 17.5561C8.97176 17.5852 8.98535 17.6124 9.00429 17.6357C9.02324 17.6591 9.04708 17.6779 9.07412 17.691C9.10116 17.7041 9.13075 17.711 9.16078 17.7114L9.47515 17.7149L9.77215 17.7126C9.83178 17.712 9.88215 17.6674 9.88968 17.6084ZM12.8151 16.5807C12.1088 16.5634 11.5877 16.8771 11.1883 17.507C11.1754 17.5272 11.1681 17.5504 11.1673 17.5743C11.1665 17.5982 11.1721 17.6219 11.1836 17.6428C11.1951 17.6638 11.212 17.6813 11.2326 17.6934C11.2532 17.7056 11.2767 17.712 11.3006 17.712H14.0517C14.274 17.712 14.4072 17.47 14.2596 17.3033C13.7756 16.7573 13.2076 16.5911 12.8151 16.5807ZM19.0863 17.397C19.477 15.9479 20.947 14.8242 22.4575 14.8207C23.9876 14.8207 25.4495 15.886 25.8634 17.309L25.8721 17.3403C25.9358 17.5603 26.1373 17.7114 26.3665 17.7114H26.8065C26.8316 17.7115 26.8563 17.7058 26.8789 17.695C26.9014 17.6841 26.9212 17.6683 26.9368 17.6487C26.9524 17.6291 26.9634 17.6062 26.9689 17.5818C26.9744 17.5574 26.9743 17.532 26.9686 17.5076C26.7428 16.5576 26.3607 15.868 25.6758 15.1756C24.3946 13.8799 22.5669 13.4614 20.9053 14.0826C20.0919 14.3877 19.1974 15.1108 18.6538 15.9063C18.4656 16.1807 18.0864 17.1012 18.0088 17.4706C18.0026 17.4997 18.003 17.5299 18.0099 17.5588C18.0169 17.5878 18.0302 17.6149 18.049 17.638C18.0678 17.6612 18.0915 17.6798 18.1184 17.6926C18.1453 17.7054 18.1747 17.712 18.2045 17.712H18.6764C18.7697 17.7119 18.8605 17.6811 18.9346 17.6242C19.0086 17.5674 19.062 17.4872 19.0863 17.397ZM21.5572 17.2743C21.7384 16.9976 22.1443 16.8934 22.4789 16.9107C22.9108 16.9327 23.0717 17.0439 23.3068 17.2743C23.4064 17.393 23.6322 17.7247 23.7526 17.7218L24.1926 17.712C24.4919 17.712 24.6702 17.4422 24.5081 17.1904C24.3414 16.9304 24.1318 16.6548 23.976 16.5309C23.3884 16.066 22.5264 15.8895 21.8114 16.0875C21.2185 16.2519 20.5504 16.8517 20.3073 17.4376C20.2946 17.4682 20.2897 17.5015 20.2929 17.5345C20.2962 17.5674 20.3076 17.5991 20.326 17.6266C20.3444 17.6542 20.3694 17.6768 20.3986 17.6924C20.4279 17.7079 20.4605 17.7161 20.4937 17.716H20.7473L21.1132 17.7062C21.2619 17.6819 21.4414 17.4011 21.5572 17.2743ZM29.2734 17.3229V17.3218C29.2445 17.1076 29.1374 16.6664 29.0355 16.3399C28.3263 14.0762 26.66 12.4534 24.3055 11.7349C22.7996 11.3714 21.1757 11.49 19.8221 12.0296C18.784 12.4482 17.7379 13.268 17.0142 14.2296C16.6147 14.7582 16.5684 14.8549 16.6512 14.9666C16.7045 15.0355 16.8538 15.2353 16.9835 15.4066C17.1138 15.5786 17.2383 15.7598 17.2614 15.8067C17.2938 15.8756 17.3124 15.8756 17.3448 15.8067C17.4745 15.5328 18.01 14.7744 18.2833 14.478C19.9802 12.6369 22.7412 12.1118 24.9817 13.2043C25.6457 13.5279 26.3897 14.1144 26.8841 14.7055C27.5354 15.4842 27.9164 16.3202 28.1607 17.5088C28.2024 17.7091 28.211 17.712 28.7639 17.712H28.9822C29.025 17.7119 29.0674 17.7028 29.1064 17.6851C29.1454 17.6673 29.1801 17.6415 29.2084 17.6093C29.2366 17.5771 29.2576 17.5392 29.27 17.4982C29.2824 17.4572 29.286 17.414 29.2804 17.3716L29.274 17.3241L29.2734 17.3229Z" fill="white"/>
</svg>
